<svg xmlns="http://www.w3.org/2000/svg" viewBox="0 0 224 224">
    <path fill="black"
        d="M109.82,0c6.44,0.79,14.04,1.71,21.65,2.64c9.9,1.21,19.81,2.41,29.71,3.62c9.74,1.2,19.48,2.43,29.22,3.63
        c7.21,0.89,14.41,1.89,21.64,2.57c8.79,0.82,13.62,6.7,12.54,15.48c-1.85,15.04-3.59,30.09-5.44,45.13
        c-2,16.22-4.1,32.43-6.1,48.66c-1.69,13.69-3.28,27.39-4.94,41.09c-0.77,6.33-1.53,12.67-2.42,18.99
        c-0.91,6.45-6.71,11.01-13.42,10.32c-9.29-0.95-18.55-2.18-27.81-3.31c-4.28-0.52-8.54-1.15-12.82-1.6
        c-0.97-0.1-2.04,0.26-2.99,0.61c-25.53,9.26-51.11,18.39-76.54,27.9c-9.85,3.69-16.04-1.01-18.88-8.84
        c-17.29-47.67-34.68-95.31-52-142.97c-3.09-8.5-0.19-14.71,8.35-17.83c27.6-10.09,55.22-20.14,82.86-30.14
        c1.98-0.72,2.81-1.57,3-3.81C96.11,4.21,101.04-0.17,109.82,0z M219.16,27.49c0.33-6.28-1.44-8.58-6.7-9.32
        c-6.63-0.94-13.29-1.68-19.94-2.5c-9.9-1.22-19.8-2.43-29.69-3.65c-9.74-1.2-19.48-2.4-29.22-3.6c-8.23-1.02-16.46-2.12-24.71-3.02
        c-4.28-0.47-7.18,1.94-7.86,6.25c-0.44,2.75-0.7,5.54-1.04,8.31c-1.39,11.07-2.81,22.14-4.17,33.22
        c-1.52,12.34-2.95,24.7-4.47,37.04c-1.68,13.69-3.43,27.37-5.13,41.05c-1.4,11.31-2.72,22.64-4.15,33.94
        c-0.58,4.58,1.34,7.65,5.83,8.62c1.94,0.42,3.94,0.57,5.92,0.81c8.47,1.05,16.94,2.09,25.41,3.13c8.47,1.04,16.95,2.07,25.42,3.11
        c8.47,1.04,16.94,2.1,25.42,3.13c7.37,0.9,14.72,1.92,22.11,2.59c5.23,0.48,7.72-1.88,8.28-7.03c0.34-3.09,0.74-6.17,1.12-9.26
        c1.22-9.81,2.45-19.62,3.66-29.43c1.2-9.73,2.36-19.47,3.55-29.2c1.21-9.89,2.44-19.78,3.66-29.67c1.2-9.73,2.41-19.46,3.61-29.19
        C217.14,44.02,218.21,35.24,219.16,27.49z"></path>
</svg>
