<svg xmlns="http://www.w3.org/2000/svg" viewBox="0 0 1059 556">
    <path fill="transparent" stroke="none"
        d=" M867.000000,557.000000   C578.387756,557.000000 289.775543,557.000000 1.081659,557.000000   C1.081659,371.756104 1.081659,186.512131 1.081659,1.000000   C282.024017,1.000000 563.048157,1.000000 844.680969,1.384511   C838.705261,3.199987 833.298584,7.876559 826.187683,8.276864   C824.052124,8.397089 822.095276,11.692887 820.056580,13.533908   C821.735596,14.874433 823.219604,16.791365 825.133118,17.438496   C829.452087,18.899084 834.109253,19.378588 838.397095,20.907364   C844.081665,22.934124 844.190308,23.811172 840.268372,28.182770   C838.680725,29.952396 836.874939,31.589193 834.944946,32.975292   C831.370544,35.542362 830.986023,40.363911 834.504700,42.919189   C836.717773,44.526295 839.182373,45.794292 841.568787,47.153618   C844.069824,48.578243 846.506226,50.803288 849.159424,51.125271   C854.103394,51.725266 858.356689,49.466465 861.224548,45.223835   C864.223633,40.787121 867.779846,36.665295 869.102478,31.244921   C869.350342,30.229383 870.195801,28.998011 871.100464,28.562796   C877.217712,25.620218 883.186523,21.581884 889.664368,20.377474   C897.567627,18.908026 901.613220,13.575834 906.075439,8.375626   C907.703918,6.477917 908.062256,3.490356 909.000000,1.000005   C924.690735,1.000000 940.381531,1.000000 956.808167,1.283293   C955.162170,4.001240 953.042480,6.796249 950.326721,8.771955   C947.455383,10.860858 944.074890,13.403731 940.812866,13.558552   C934.294739,13.867913 927.709839,12.618058 921.141235,12.181448   C920.160400,12.116250 919.012207,12.814563 918.123108,13.424488   C914.087952,16.192352 910.372864,19.546856 906.069519,21.777826   C897.989380,25.966805 889.094238,28.733961 883.149536,36.293053   C882.575806,37.022575 881.400208,37.270386 880.799927,37.989002   C878.957214,40.194759 875.467041,42.984909 875.909912,44.694862   C876.633179,47.486919 879.609863,50.120354 882.254517,51.902660   C888.071594,55.822937 895.772217,55.823883 901.310303,60.615303   C902.230530,61.411476 903.773926,61.442261 904.936096,62.015720   C906.257690,62.667858 907.692200,63.317345 908.701172,64.339561   C914.634949,70.351181 918.305298,77.476143 919.176575,85.995163   C919.273010,86.938774 920.584045,87.734566 921.264404,88.649017   C921.885864,89.484375 922.580017,90.322319 922.958435,91.272125   C924.722839,95.701164 926.261719,100.223335 928.123535,104.609413   C930.278625,109.686630 933.061646,114.524261 934.889160,119.706734   C937.114441,126.017281 942.077576,129.467758 947.146057,132.888412   C950.172607,134.931091 953.786560,136.170639 956.612427,138.427460   C960.623169,141.630585 969.374146,140.208939 970.728333,135.227737   C973.267822,125.886551 980.895630,120.533226 986.964539,114.253540   C995.205383,105.726654 1006.680786,100.678612 1014.209473,91.245934   C1018.016174,86.476456 1021.688721,81.151871 1023.613159,75.466064   C1025.227661,70.696106 1024.375610,65.036705 1024.326538,59.773808   C1024.278198,54.573471 1024.091309,49.479015 1028.700073,45.733765   C1029.685425,44.933041 1030.294067,43.674599 1031.099243,42.644997   C1035.054321,37.586960 1039.058716,32.566410 1042.936279,27.449547   C1043.570435,26.612679 1043.689087,25.369684 1043.989746,24.298607   C1044.656738,21.922430 1045.287842,19.536207 1046.112305,16.495321   C1045.050171,15.665336 1043.519531,13.501912 1041.710449,13.236482   C1036.210815,12.429547 1030.603149,12.361798 1025.038330,11.994406   C1021.401245,11.754287 1017.765442,11.493674 1014.992493,11.301942   C1016.152405,7.328849 1017.076172,4.164422 1018.000000,0.999997   C1031.992310,1.000000 1045.984497,1.000000 1059.982666,1.000000   C1059.988403,186.223099 1059.988403,371.446198 1059.988403,557.000000   C1001.643005,557.000000 943.285339,557.000000 884.463867,556.565430   C884.503418,553.417725 884.827942,550.655396 885.555115,548.003601   C886.476257,544.644592 888.644104,541.375732 888.645081,538.067505   C888.647278,530.680542 892.369751,524.433899 894.928040,518.200806   C898.558472,509.355652 903.344116,500.629303 910.210693,493.499023   C914.257751,489.296417 917.860657,484.475586 922.511597,481.102356   C926.627014,478.117493 932.106873,477.092499 936.629883,474.567383   C940.602051,472.349731 944.424255,469.604980 947.688904,466.447998   C951.292175,462.963409 954.110718,458.751984 958.913574,456.521912   C961.364685,455.383881 963.796631,453.744202 965.581848,451.745819   C967.956360,449.087646 969.040527,444.734924 971.839661,443.112701   C977.379700,439.901947 978.182312,434.562195 980.254761,429.603577   C981.014771,427.785278 982.718445,426.384888 983.687561,424.626312   C987.256042,418.150757 993.145691,412.766449 993.117310,404.559753   C993.113708,403.516174 993.837830,402.399963 994.424927,401.439789   C995.487549,399.702026 996.987122,398.182617 997.795898,396.347900   C999.903870,391.566467 998.020264,385.413177 1002.951782,381.523346   C1003.916199,380.762634 1004.557373,379.472839 1005.091309,378.309418   C1006.389648,375.480591 1007.293091,372.533905 1003.508057,370.854401   C996.822327,367.887756 990.256775,364.450256 983.296021,362.355896   C975.220154,359.925964 966.725098,358.925293 958.508545,356.910248   C954.866760,356.017029 951.324646,354.413330 948.003357,352.635071   C946.103149,351.617615 944.891724,349.390533 943.098206,348.080414   C939.652283,345.563232 935.825317,343.790619 931.920959,341.969635   C924.593567,338.552185 918.108398,333.359222 911.164368,329.080994   C904.106262,324.732544 896.974731,320.493683 889.739929,316.449158   C888.170593,315.571838 885.882568,315.116333 884.169189,315.514587   C877.854553,316.982452 871.257080,315.193512 864.926086,317.710785   C863.103210,318.435577 859.057556,316.597656 857.624512,314.719086   C852.944885,308.584412 846.977295,306.008545 839.541260,305.977203   C836.730713,305.965363 835.432312,304.880646 834.785950,301.676849   C833.828491,296.930725 831.609375,292.439148 829.733582,287.309235   C824.819946,289.849792 821.031372,292.283386 816.903076,293.779602   C814.057129,294.811096 811.929443,292.788818 811.075378,289.866425   C809.189758,283.414093 807.332153,276.953583 805.398438,270.273071   C805.481934,270.179749 805.744385,269.607941 806.153259,269.469849   C815.459534,266.326752 824.708740,262.973907 834.148682,260.294373   C836.741699,259.558289 840.343567,259.504181 842.165405,263.121216   C842.595703,263.975403 843.938782,264.578461 844.982422,264.880127   C850.420654,266.452026 855.272339,264.773895 860.182312,262.381744   C867.833374,258.654205 867.375977,249.470779 872.917542,244.311478   C876.244995,241.213501 878.681335,237.164841 881.974792,234.021835   C884.813477,231.312836 888.495728,229.505447 891.455811,226.902283   C897.401489,221.673218 902.640259,215.571747 910.760681,213.333435   C911.646545,213.089279 912.776184,210.015121 912.268616,209.087906   C910.309326,205.508667 907.750793,202.254364 905.379761,198.904343   C902.171265,194.371185 904.290649,186.067398 909.465271,184.356476   C914.822510,182.585175 920.318787,180.978210 925.880859,180.162445   C930.429321,179.495377 931.105469,177.467300 928.985046,174.260086   C923.980835,166.690903 918.719849,159.285385 913.362671,151.959930   C911.971130,150.057068 910.019958,148.411835 908.011353,147.148209   C905.159546,145.354065 901.671326,144.461777 899.062927,142.410965   C891.399292,136.385651 882.605469,135.792969 873.507324,136.407608   C872.666199,136.464432 871.407532,137.853363 871.215820,138.800446   C869.907471,145.264969 869.385071,151.944336 867.483154,158.212799   C866.273560,162.199432 867.481384,167.649750 861.992859,170.252579   C859.530334,166.846832 857.655945,163.009720 854.696899,160.404602   C847.008728,153.635910 838.814087,147.444916 830.901611,140.926178   C829.721558,139.953934 828.125671,138.413300 828.187500,137.210922   C828.362671,133.803253 828.458191,129.932678 830.116089,127.159843   C833.142761,122.097664 836.666931,116.981842 841.107910,113.213226   C845.733826,109.287605 851.250061,106.510498 854.523804,101.004349   C856.753052,97.255058 856.437195,94.803802 852.904846,93.442932   C849.936951,92.299530 847.008301,90.464714 843.962036,90.228424   C835.798645,89.595238 829.921448,84.516319 823.348999,80.719749   C813.812988,75.211197 809.271484,76.294342 804.062866,84.201080   C801.906860,87.473938 801.198669,91.673271 799.216125,95.094330   C796.583252,99.637627 793.347900,103.831810 790.699097,107.697716   C787.187500,107.426460 784.394470,107.379021 781.660767,106.951965   C778.955139,106.529282 776.243835,105.916100 773.654602,105.035065   C770.688782,104.025925 767.940613,102.337090 764.946716,101.458366   C756.920776,99.102684 748.812012,97.029404 740.745056,94.811768   C740.299988,94.689423 739.960510,94.226044 739.529175,94.004280   C735.022644,91.686852 730.528687,89.342407 725.970398,87.130707   C725.320618,86.815407 724.334717,87.281151 723.526611,87.189255   C719.121643,86.688400 714.723694,86.126152 710.323303,85.585014   C708.214417,86.690865 706.019836,88.263344 703.136780,84.897766   C702.402405,84.040482 700.401489,84.054184 698.978149,84.037315   C692.097900,83.955734 685.205872,84.225258 678.338928,83.911728   C674.504639,83.736671 670.685486,82.787094 666.904785,81.975235   C659.728638,80.434204 652.571838,78.796387 645.432800,77.091118   C641.028564,76.039124 636.755493,74.845047 633.220398,79.189857   C632.113098,80.550797 630.513123,81.614632 628.954773,82.485428   C624.236633,85.121880 619.069824,87.065186 620.171997,94.319519   C620.627930,97.320366 618.757935,100.667114 619.184448,103.681252   C620.748779,114.736115 620.530273,124.987617 611.468567,133.381180   C610.224670,134.533340 610.483398,138.785355 611.614746,140.651352   C613.040466,143.002960 616.131775,144.312164 618.409424,146.186630   C623.095276,150.042984 626.093750,150.312759 630.918579,147.794632   C634.380249,148.330276 637.894714,148.730301 641.286377,148.254532   C651.075562,146.881256 660.658752,143.235504 670.769287,145.997665   C673.433838,146.725616 676.194763,148.083420 678.801636,147.861649   C687.723145,147.102692 693.543518,152.456436 698.842407,158.031952   C703.572021,163.008530 706.314575,170.137589 711.539001,174.304398   C716.598267,178.339508 716.768494,184.368622 720.310791,188.965683   C723.599121,193.233139 723.122986,200.526215 723.918945,206.538147   C724.336060,209.688797 724.439819,213.058884 723.781433,216.136536   C722.450500,222.357590 722.886536,228.039383 726.642334,233.336411   C727.262451,234.210938 727.455383,235.408707 727.762573,236.480896   C728.663940,239.626526 728.960510,243.099289 730.513428,245.873215   C734.029846,252.154312 738.054810,258.162018 742.066040,264.151611   C745.975098,269.988556 749.859863,275.882446 754.313721,281.291504   C755.848938,283.155853 759.065247,283.635986 761.513611,284.748413   C762.340271,282.345123 763.217041,279.957092 763.957153,277.527405   C764.135376,276.942505 763.911072,276.209808 763.785889,275.561676   C762.824341,270.583527 761.841553,265.609497 760.557495,259.064941   C763.363403,260.379761 765.410461,260.743683 766.493286,261.963501   C769.206360,265.019775 771.661377,268.347321 773.896301,271.776917   C778.257385,278.469238 782.028320,285.580383 786.783508,291.967224   C789.181458,295.188019 792.946106,297.661713 796.549805,299.641296   C800.464050,301.791382 804.969604,302.834717 809.107117,304.616425   C814.150146,306.788025 819.239380,308.940826 824.008850,311.632812   C828.409668,314.116669 832.335815,317.425690 836.613220,320.147888   C841.702637,323.386963 846.640381,327.261841 852.220825,329.199310   C856.265686,330.603638 856.429321,332.181366 855.299133,335.150024   C854.794006,336.476807 853.590576,337.527344 852.765503,338.744873   C850.841858,341.583496 847.533691,344.346863 847.323486,347.320099   C846.720093,355.854858 847.197327,364.487762 847.632385,373.062683   C847.791992,376.207703 848.325684,379.723267 849.909180,382.327728   C853.521301,388.268768 857.116089,394.581635 862.121643,399.232666   C870.415161,406.938782 871.232483,417.718353 874.573730,427.163666   C876.749146,433.313293 876.781860,441.508850 872.379517,448.167725   C871.543274,449.432526 871.255005,451.159332 871.040955,452.717865   C870.271362,458.322998 869.721985,463.958862 868.919678,469.558807   C868.596130,471.817352 867.679443,473.986969 867.298401,476.241913   C865.435242,487.266907 863.462585,498.279175 861.913025,509.349762   C860.398438,520.171265 856.588989,530.812927 858.959900,541.998291   C859.056152,542.452637 858.696106,543.003967 858.793335,543.457703   C859.159424,545.165955 859.215576,547.132751 860.140198,548.490173   C862.184753,551.491638 864.685425,554.182434 867.000000,557.000000  M287.898560,336.538361   C294.260071,330.658508 295.780579,322.296173 298.988556,314.811340   C303.346497,304.643433 306.898224,293.932831 318.531219,288.139038   C320.931946,291.821106 323.265259,295.491669 325.721222,299.078217   C326.140778,299.690948 327.153625,299.861389 327.775635,300.377045   C333.642548,305.240234 340.450134,309.670959 336.482727,319.141113   C336.229004,319.746826 336.552246,320.660706 336.765381,321.384613   C338.007538,325.604095 340.630493,329.339264 340.228455,334.154907   C339.988678,337.026947 340.082611,340.804077 341.714691,342.779663   C345.579926,347.458405 350.366821,351.403870 354.988922,355.405792   C355.931610,356.222015 358.239746,356.648193 359.098511,356.059052   C360.063721,355.396851 360.301971,353.408569 360.506012,351.948212   C361.533356,344.596802 356.642303,338.709656 355.428589,331.903229   C354.607880,327.300842 353.806641,322.693298 353.139435,318.067474   C353.064484,317.547699 353.920288,316.893677 354.470520,316.126068   C355.944061,317.536377 356.998138,318.899872 358.364868,319.775208   C360.769623,321.315369 363.285065,323.461975 365.901733,323.694611   C369.163971,323.984589 372.655823,322.853455 375.898865,321.851501   C378.810272,320.952057 381.860107,319.823334 384.184540,317.964874   C385.500458,316.912689 386.323181,313.976776 385.893799,312.257477   C384.813202,307.930481 383.047241,303.747192 381.271759,299.628845   C379.447296,295.396759 379.412048,291.589447 382.953888,288.272278   C384.912628,286.437775 386.976379,284.714874 389.005005,282.955719   C390.392609,281.752472 391.675507,280.367706 393.223694,279.421600   C398.092865,276.446045 403.014801,273.427826 403.915100,267.203156   C404.579010,262.612885 404.440948,257.912811 404.869049,253.280960   C405.606812,245.298187 410.040649,237.680710 407.186798,229.297348   C406.999237,228.746429 408.291412,227.691772 408.692596,227.146744   C414.752930,231.734177 420.400940,236.009491 426.626740,240.722183   C428.303619,238.032059 430.021057,236.015244 430.883240,233.682312   C431.715424,231.430573 431.031006,228.502457 432.140106,226.493973   C434.198120,222.767105 433.340546,217.783432 437.461609,214.970795   C441.153320,212.451157 444.715881,209.718521 448.159668,206.867615   C450.525330,204.909256 452.933960,202.837463 454.720520,200.378387   C458.815277,194.742294 462.623505,188.890854 466.377441,183.017792   C467.979706,180.511124 470.954987,176.781891 470.157227,175.271225   C468.405151,171.953445 465.013519,169.017609 461.613953,167.176178   C457.360626,164.872314 452.427551,163.823395 447.247742,162.047577   C450.237610,158.100647 451.903320,154.090500 454.874847,152.459686   C458.223267,150.622040 462.800751,150.179016 466.749512,150.458572   C474.619934,151.015808 480.551483,146.989609 486.769135,143.415543   C491.526917,140.680649 495.900543,136.834732 500.995209,135.232590   C508.580109,132.847351 516.650085,132.004700 524.513672,130.505615   C524.688843,131.014114 524.864014,131.522614 525.039124,132.031113   C523.054443,134.694290 520.906494,137.252792 519.118164,140.041870   C515.063477,146.365768 511.669769,153.183182 507.058838,159.055161   C504.193085,162.704712 501.810913,166.059128 500.768280,170.676682   C500.174988,173.304230 498.212708,175.971573 496.150482,177.823044   C493.971069,179.779694 494.205963,181.158157 495.625061,183.106918   C496.689178,184.568161 497.665405,186.093399 498.680756,187.590164   C498.997711,186.925903 499.314667,186.261642 499.631622,185.597397   C501.458984,185.377243 503.569672,185.667877 505.060455,184.840927   C509.483704,182.387283 515.175659,180.442917 517.609314,176.565613   C522.101074,169.409454 524.115662,160.742050 528.176025,153.253922   C530.329224,149.282990 530.215942,143.134903 537.113403,142.275543   C541.771423,141.695175 546.492920,137.807877 550.709229,138.463867   C555.966309,139.281815 558.035645,136.872040 560.695435,133.895279   C561.094360,133.448761 561.880371,133.374374 562.402100,133.006851   C565.966431,130.495728 569.991638,128.409653 572.931824,125.300880   C576.431519,121.600578 580.633362,121.201820 584.867188,121.551964   C589.104065,121.902382 593.243469,123.431969 596.641541,124.254814   C601.784302,116.492912 606.893433,109.539490 600.689453,101.439957   C598.591736,101.690369 596.713013,102.391876 595.088806,102.010208   C591.595642,101.189362 588.235229,99.805840 584.817383,98.661705   C580.588013,97.245911 576.328796,95.913368 572.133728,94.402733   C569.341431,93.397247 566.731201,91.662903 563.874268,91.112427   C559.525574,90.274544 554.982300,90.473770 550.613098,89.709816   C540.695374,87.975716 530.864075,85.740364 520.937378,84.066948   C514.787354,83.030197 508.515930,82.734047 502.319855,81.942406   C498.863678,81.500832 495.457520,80.248428 492.015900,80.195137   C483.560394,80.064194 481.885071,79.181679 479.031647,71.953590   C478.638824,70.958466 478.063629,69.545853 477.259003,69.281410   C471.575470,67.413559 465.858337,65.585091 460.036865,64.243324   C458.559296,63.902760 456.364166,64.995270 455.034851,66.083893   C453.020630,67.733360 451.839752,70.924362 449.659637,71.743698   C444.286041,73.763199 438.545197,74.805527 432.794769,76.281075   C428.495178,71.081284 422.593414,71.034943 416.221008,70.695488   C407.235565,70.216843 398.444458,66.938133 389.212097,68.851608   C388.354065,69.029442 387.117523,67.380814 386.056763,66.580238   C386.730804,65.695969 387.225922,64.358505 388.111115,64.008957   C391.278320,62.758297 391.970917,57.641354 396.518280,58.690632   C396.690613,57.511047 397.442688,55.896118 396.938446,55.224583   C394.252960,51.648258 391.511597,48.034992 388.278900,44.973793   C385.748657,42.577789 382.619049,39.634117 379.499786,39.296131   C373.702484,38.667973 367.718353,39.761490 361.812622,40.147549   C361.656525,40.157757 361.508728,40.278572 361.354797,40.342323   C355.107758,42.929714 348.847290,45.485245 342.616394,48.110973   C334.294373,51.617905 325.989471,55.165627 317.689514,58.724518   C314.716156,59.999443 311.558319,61.016144 308.870544,62.749153   C303.281616,66.352760 297.710876,70.068451 292.612518,74.314293   C289.992981,76.495804 286.496460,80.084747 286.731323,82.742989   C287.294830,89.120644 289.829651,95.324127 291.675537,101.982300   C290.335938,101.812714 288.465240,101.993546 288.251404,101.481926   C286.716583,97.809357 283.698456,99.278053 281.070740,98.701866   C278.408173,98.118042 273.978790,100.767082 273.348633,93.953484   C272.924591,89.368706 274.089294,85.896484 275.475677,82.316849   C277.277863,77.663620 276.473297,73.972603 272.268555,72.099785   C269.462097,70.849777 265.826752,71.408180 262.557770,71.309357   C262.100861,71.295547 261.520660,72.086792 261.161316,72.616501   C256.534393,79.436859 252.128677,86.421524 247.178833,92.997154   C246.128250,94.392799 243.144302,94.702194 241.008972,94.835121   C236.603027,95.109390 232.074097,95.501022 227.769379,94.791306   C222.099747,93.856567 217.219315,96.604576 211.903809,97.133385   C210.549194,97.268150 209.282639,98.785965 208.072922,99.786011   C204.435272,102.793144 201.097427,106.247017 197.167313,108.792900   C193.136841,111.403801 188.429062,112.943588 184.229050,115.324898   C179.063477,118.253647 175.603027,117.956558 170.676468,113.039841   C172.893570,112.537811 175.079605,112.613220 176.429276,111.587791   C177.994049,110.398911 178.783371,108.214172 179.985199,106.515419   C181.072098,104.979134 182.284393,103.532242 183.401031,102.016197   C187.123795,96.961884 187.260666,90.566658 183.083115,88.191383   C176.516464,84.457710 169.874252,79.956589 162.698853,78.420517   C153.610352,76.474907 143.917358,76.452766 134.774841,80.032318   C130.719925,81.619934 126.645630,83.204178 122.477867,84.447029   C115.475555,86.535156 108.369156,88.272850 101.355797,90.326202   C99.307159,90.925987 97.030304,91.675003 95.535034,93.077415   C88.598717,99.582977 84.097267,107.657928 82.090660,116.911644   C80.433548,124.553673 79.247559,132.311478 78.256332,140.069550   C78.108070,141.229904 80.045471,143.625275 81.237473,143.782166   C83.556252,144.087387 86.062195,143.344330 88.431564,142.785278   C90.738274,142.240982 92.971161,141.383759 94.571724,140.875168   C96.570015,144.129181 98.136414,146.533539 99.555328,149.022018   C102.216904,153.689880 115.836731,153.968948 118.246040,148.745712   C120.163788,144.588135 124.884903,141.391113 123.551605,135.680557   C123.022705,133.415237 124.145126,130.814514 123.953049,128.411484   C123.215157,119.180450 124.418694,111.024529 134.409149,107.119110   C135.448196,106.712936 136.511246,106.368210 137.563156,105.994965   C137.910645,106.407974 138.258133,106.820984 138.605637,107.233994   C136.950760,109.774139 135.406754,112.395775 133.614304,114.834816   C131.094635,118.263405 130.790604,121.785545 134.148361,124.437698   C136.822098,126.549561 140.267075,127.685020 144.120773,129.633759   C143.254166,130.522736 142.099335,131.873947 140.767136,133.018753   C139.784271,133.863373 138.374985,134.250397 137.491455,135.165497   C132.874878,139.946915 128.306335,144.778534 123.856560,149.714798   C122.585022,151.125351 121.427109,152.825653 120.808609,154.599335   C119.437500,158.531387 111.754517,162.928955 106.873581,160.788742   C102.917542,159.054092 99.186699,156.639526 95.689148,154.072571   C92.229355,151.533325 89.021439,151.751022 86.860680,155.437103   C84.882843,158.811142 83.090195,162.295654 81.057320,165.634918   C79.360992,168.421341 77.920601,171.652206 75.510262,173.655670   C70.376556,177.922760 65.437134,182.816528 58.156906,183.547714   C57.339020,183.629868 56.661709,185.111679 56.048363,185.799576   C58.593987,189.782639 60.945980,193.462753 63.264889,197.091080   C58.343670,202.206589 52.700184,200.845779 47.460682,200.118011   C40.675373,199.175507 35.647331,201.547226 35.162354,206.755081   C34.720482,211.500122 35.031784,216.458466 33.708481,220.937973   C32.389290,225.403595 33.772678,226.957458 37.634804,228.093719   C39.299530,228.583481 40.685493,229.952911 42.289349,230.735794   C44.024166,231.582596 45.810719,232.448441 47.673393,232.878510   C50.367039,233.500427 53.149464,233.737793 56.913818,234.288391   C54.068020,236.786026 52.557899,238.138367 51.018929,239.457062   C46.396530,243.417847 42.005116,247.705963 37.064587,251.221283   C32.249538,254.647308 28.209375,258.344086 26.315029,264.128326   C25.720385,265.944031 24.460875,267.589020 23.306147,269.166046   C18.482790,275.753296 13.629700,282.319977 8.694700,288.823792   C5.738297,292.720032 7.266423,297.129547 6.707492,301.307312   C6.207496,305.044617 5.737337,307.724609 9.036839,308.887238   C9.500819,311.526764 9.193753,314.027710 10.300073,315.286285   C13.778799,319.243713 17.880077,322.645721 21.556471,326.440857   C23.541361,328.489868 25.391977,330.755188 26.873798,333.184845   C29.046690,336.747559 30.584524,340.715240 32.921825,344.150574   C33.744289,345.359375 36.100975,345.953491 37.797520,346.040405   C40.516766,346.179779 43.275593,345.407379 46.007210,345.470947   C54.274914,345.663330 62.535717,346.136902 70.802841,346.374817   C76.626610,346.542450 81.752457,347.372314 84.429153,353.745026   C87.362808,360.729462 86.295120,368.575806 90.618484,375.486450   C93.599762,380.251862 93.948769,386.819427 94.834991,392.678253   C95.317993,395.871399 94.367165,399.263031 94.268044,402.571289   C94.225838,403.979889 94.664246,405.413635 94.965332,406.818573   C95.237167,408.087006 95.736778,409.313660 95.933350,410.589966   C96.890732,416.805939 97.486839,423.094208 98.783264,429.236115   C99.886391,434.462250 102.080917,439.456238 103.212906,444.678589   C104.224319,449.344635 104.180382,454.231903 105.065155,458.934418   C107.089218,469.692139 112.338692,472.251556 119.988495,469.636444   C124.018837,468.258667 127.360786,468.186829 131.348389,468.734650   C133.734100,469.062439 136.713165,467.868469 138.878967,466.496033   C146.615295,461.593658 152.569550,454.907745 156.713882,446.721283   C158.143326,443.897644 161.145859,440.887604 161.366837,438.849060   C161.804230,434.814056 164.202408,432.952972 166.113571,430.249298   C168.088531,427.455383 169.314987,424.144989 171.098831,421.199799   C172.871765,418.272583 174.317871,414.470520 176.991882,412.906952   C182.555740,409.653564 182.923996,405.300507 182.474594,399.777405   C182.094955,395.111694 182.052902,390.204559 183.111374,385.697906   C184.103821,381.472382 184.581100,377.840088 182.140991,374.056885   C181.344528,372.822021 180.357666,370.736572 180.863922,369.800995   C183.241196,365.407745 185.179398,359.886505 188.992126,357.344635   C197.084427,351.949829 200.674393,343.723907 205.355057,336.091156   C206.668625,333.949127 207.150543,331.306915 208.399170,329.113373   C211.978378,322.825562 211.885468,318.961731 208.446777,314.545380   C204.746857,315.199554 201.622574,315.751923 198.498291,316.304321   C198.315979,315.728577 198.133667,315.152832 197.951355,314.577087   C198.955994,314.052704 199.940063,313.483337 200.969269,313.012634   C203.643692,311.789581 206.384491,310.703125 209.013550,309.391266   C213.089218,307.357666 217.049774,305.090576 221.148682,303.107574   C223.040695,302.192261 225.648727,302.241089 227.033676,300.914703   C229.103226,298.932648 231.532486,296.206146 231.719040,293.644135   C231.989700,289.927216 231.251312,285.513336 229.269684,282.495819   C228.129333,280.759338 223.683746,281.221252 220.737274,280.636536   C216.332123,279.762329 210.674652,280.213409 207.836624,277.608948   C203.693893,273.807159 201.579773,267.794861 198.600906,262.724823   C198.936966,262.225739 199.273041,261.726654 199.609116,261.227539   C203.211761,261.547882 206.826447,261.773193 210.412201,262.226929   C212.323349,262.468781 214.364655,262.759033 216.035294,263.627502   C221.582169,266.510834 226.971191,269.696442 232.468628,272.677917   C233.130249,273.036743 234.157043,273.099884 234.892426,272.884003   C239.809677,271.440277 242.913361,273.941010 245.289597,277.710907   C246.932007,280.316589 247.565018,284.357971 249.831955,285.601624   C254.344269,288.077087 257.221405,291.055817 258.056274,296.076904   C258.130188,296.521332 258.583496,296.898865 258.846741,297.316193   C264.919403,306.943146 270.757507,316.730164 277.170624,326.124634   C279.907227,330.133453 283.843506,333.323364 287.898560,336.538361  M506.996033,433.766998   C506.662506,432.709595 506.656433,431.280212 505.944092,430.653168   C499.794983,425.240204 493.352173,420.152161 487.335419,414.600464   C482.908478,410.515656 478.978394,405.890808 474.848846,401.486053   C473.171600,399.697021 471.552612,397.853394 469.907166,396.034607   C468.300690,398.330627 466.666504,400.608215 465.117035,402.942078   C464.878632,403.301208 465.205627,404.030609 464.971924,404.398834   C463.797150,406.249542 462.865173,408.636810 461.151276,409.614594   C460.175262,410.171356 457.581757,408.732849 456.208466,407.597748   C451.867340,404.009521 447.855621,400.020844 443.488037,396.467865   C442.441010,395.616150 440.115448,395.126068 439.046051,395.704620   C430.998291,400.058624 422.708557,404.152008 415.311798,409.464752   C409.192444,413.860046 402.158875,413.886444 395.574280,415.962769   C391.755707,417.166840 387.583801,417.491516 383.998138,419.140747   C377.345703,422.200531 375.774261,426.415863 377.932983,433.732971   C378.592987,435.970032 380.338715,437.914368 380.855927,440.161102   C383.048248,449.684540 385.268250,459.221863 386.841736,468.858032   C387.519775,473.010437 389.337738,473.906799 393.044739,474.066284   C406.370117,474.639435 417.781067,467.546326 430.265015,464.723663   C436.264557,463.367157 441.544891,464.947235 447.137909,464.677551   C447.730438,464.648987 448.430969,465.529205 448.977478,466.089233   C453.389648,470.610138 457.735748,475.196686 462.213013,479.651703   C462.944763,480.379852 464.183960,480.762939 465.252411,480.960510   C471.256531,482.070618 477.176300,481.622070 483.075928,480.030853   C489.708832,478.241821 496.739197,473.914551 497.672363,467.547333   C497.895447,466.025024 496.790375,464.219727 497.221985,462.832611   C498.596008,458.416718 500.498779,454.168793 502.024017,449.795563   C503.778473,444.765228 505.348053,439.670410 506.996033,433.766998  M818.337463,70.851410   C820.802246,72.049011 823.264954,73.251045 825.732483,74.442940   C828.126221,75.599213 830.741516,76.439842 832.878967,77.955650   C838.225708,81.747375 843.557007,84.880264 850.573181,83.121140   C852.767761,82.570923 855.451172,82.424660 857.517151,83.176025   C866.325317,86.379402 869.694824,94.063545 871.799255,102.296783   C872.433289,104.777092 872.971252,107.661758 868.848816,109.604256   C866.878662,110.532555 866.316833,115.937073 866.502441,119.236191   C866.578979,120.595543 870.165100,122.199341 872.401123,122.864334   C874.422729,123.465561 876.800720,122.728355 878.984863,122.947655   C887.495667,123.802231 895.912109,117.318016 895.880554,109.066116   C895.851929,101.571770 894.749084,94.086868 894.304810,86.586838   C894.024109,81.847450 889.841370,81.485466 887.258545,79.132988   C882.327942,74.642105 876.972778,74.337456 871.121582,73.940567   C864.752380,73.508537 858.312744,73.076805 852.107422,71.716507   C849.137512,71.065453 846.432434,68.510201 843.968262,66.396683   C839.183777,62.293118 834.117676,58.315395 827.727478,58.237736   C823.905212,58.191288 820.054932,60.452950 815.990967,61.749317   C816.684875,64.960762 817.257935,67.613022 818.337463,70.851410  M765.531067,91.888107   C770.063965,92.920639 774.567139,94.120926 779.139160,94.933044   C782.848572,95.591942 786.439697,94.345268 787.862488,90.881813   C789.515198,86.858223 790.346924,82.420479 790.969421,78.081329   C791.307556,75.724510 791.157410,71.495132 790.044739,71.046989   C785.405396,69.178482 779.856140,66.581474 775.496033,67.671913   C768.014160,69.543091 761.987000,65.264374 755.089478,65.199402   C751.181030,65.162582 744.422424,65.019020 743.217773,67.653992   C740.274048,74.092979 741.533325,79.467331 746.787476,82.331657   C752.164124,85.262810 757.601868,88.082367 763.031006,90.916039   C763.599670,91.212868 764.290649,91.275314 765.531067,91.888107  M47.803635,170.540985   C45.523388,172.279739 44.451927,175.346268 46.663502,176.618866   C48.907463,177.910095 52.905777,178.034592 55.244022,176.873825   C59.618122,174.702332 63.391071,171.289642 67.335976,168.290527   C74.437202,162.891800 74.173195,152.350403 70.583344,147.111328   C67.757713,142.987610 65.353760,138.770660 66.018875,133.540527   C66.461624,130.058960 64.044380,128.935669 61.551628,128.099976   C58.559681,127.096909 55.446312,126.456039 52.008759,125.560143   C49.730534,127.860062 47.227837,129.799744 49.184402,134.798279   C50.514778,138.197052 48.242332,142.880524 48.103966,147.007034   C47.850082,154.578659 47.982422,162.163223 47.803635,170.540985  M252.359238,53.910770   C252.938873,53.595978 253.504440,53.251266 254.100372,52.971104   C259.176392,50.584774 256.040741,46.573795 255.523315,43.527897   C255.087357,40.961449 252.585281,41.162010 249.902512,41.741722   C246.201385,42.541485 242.023911,41.342693 238.422745,42.341805   C234.741241,43.363213 230.610611,45.264107 228.273529,48.097294   C223.823135,53.492451 220.984421,60.207745 216.591782,65.662430   C212.101212,71.238678 211.580505,77.583527 211.087616,84.048965   C210.825394,87.488464 214.906952,89.755959 217.562714,87.585854   C219.806122,85.752724 221.797638,83.157753 222.920059,80.487747   C226.981964,70.825470 231.289322,61.692959 242.662781,58.536709   C245.817902,57.661129 248.648300,55.615501 252.359238,53.910770  M196.022400,398.450897   C191.488968,404.868378 185.851547,410.811249 182.815887,417.872620   C180.840149,422.468475 180.271347,428.297424 182.516113,434.336609   C184.448273,439.534760 188.155579,439.465393 191.153931,439.545502   C193.382858,439.605103 196.536682,436.664581 197.812637,434.276917   C200.573120,429.111328 201.686676,422.995789 204.786804,418.100250   C208.177872,412.745300 209.056992,407.193848 208.857285,401.320190   C208.786118,399.226807 207.081085,397.189026 206.121841,395.125854   C203.354584,397.519043 198.356934,392.227997 196.022400,398.450897  M533.766602,519.952454   C536.497498,518.371826 539.180420,516.699829 541.970764,515.232239   C546.036438,513.093994 548.073059,509.484863 550.074951,505.539795   C552.884094,500.003937 556.780151,495.287720 556.773560,488.295105   C556.769226,483.651947 554.189148,482.468445 551.493408,482.065002   C547.265381,481.432220 543.050781,481.595581 539.837402,486.051666   C534.826538,493.000305 529.011597,499.368958 523.539734,505.985352   C523.125244,506.486603 522.322693,507.064453 522.388489,507.503662   C523.018005,511.705933 520.281311,516.811035 524.427979,519.013733   C528.114319,519.411072 530.576965,519.676514 533.766602,519.952454  M476.817413,373.982697   C467.670746,369.290955 458.578308,364.488403 449.347229,359.969025   C446.216522,358.436279 442.485992,355.998901 440.140381,360.889709   C443.214417,365.747406 446.033722,370.309204 448.959259,374.801788   C453.940887,382.451721 461.169250,386.411621 470.167603,386.594269   C476.589264,386.724609 483.038727,386.163208 489.442383,385.557648   C490.164215,385.489380 491.331604,382.076996 491.178162,381.980133   C486.744629,379.180969 482.168854,376.607147 476.817413,373.982697  M405.108002,353.567413   C405.735931,352.232666 406.124329,350.699219 407.036224,349.600006   C409.889618,346.160706 408.522461,342.409729 407.797821,338.893433   C406.730225,333.712952 401.787598,332.063538 397.426208,335.044281   C393.361115,337.822449 389.367371,340.727448 385.148224,343.252441   C379.523071,346.618835 378.664459,352.762665 376.225372,357.962860   C375.942596,358.565735 377.127777,360.500946 378.035187,360.898010   C380.792267,362.104523 383.772980,362.786621 386.619568,363.804504   C394.633575,366.670013 397.347443,365.764008 402.228882,358.433655   C403.140503,357.064606 404.024109,355.676880 405.108002,353.567413  M797.070496,26.076103   C797.784546,29.500679 797.326416,34.469215 799.428650,36.065304   C806.198242,41.204826 813.911865,45.100872 821.591492,49.672890   C824.301880,45.096001 826.880371,41.589989 828.469299,37.681679   C829.205139,35.871742 828.777527,32.629780 827.540527,31.169531   C824.654114,27.762308 820.660950,25.310194 817.650330,21.987196   C810.660278,14.271627 801.141968,15.655730 797.070496,26.076103  M800.906250,51.451176   C797.756775,50.313477 794.685852,48.809258 791.441528,48.114197   C784.632690,46.655495 777.768066,45.180958 770.853088,44.628483   C768.035461,44.403366 764.252197,45.861889 762.415527,47.907681   C761.414551,49.022713 763.029602,53.324104 764.474792,55.525288   C765.578430,57.206036 768.150818,58.271420 770.277527,58.860046   C774.969116,60.158577 779.760315,61.181355 784.569580,61.948277   C789.899841,62.798260 795.299927,63.702797 800.660706,63.651646   C803.183044,63.627583 806.065796,61.825214 807.997803,59.996727   C808.715332,59.317547 807.684387,55.863686 806.528992,54.405704   C805.473267,53.073601 803.172363,52.728340 800.906250,51.451176  M839.707886,286.186737   C841.958435,287.777130 843.996399,290.098785 846.497864,290.825958   C855.351990,293.399872 864.326416,295.611328 873.352844,297.492096   C874.938599,297.822510 878.338989,296.193085 878.604370,294.970245   C879.914795,288.932129 872.969788,280.748566 866.747314,279.957214   C860.287415,279.135651 853.883423,277.874603 847.423462,277.053497   C844.609009,276.695770 841.636047,276.546509 838.887634,277.083496   C837.134033,277.426117 835.660095,279.200226 834.060791,280.332489   C835.766968,282.143524 837.473145,283.954590 839.707886,286.186737  M1036.187988,114.413895   C1036.641113,110.997459 1038.588501,106.551773 1037.138306,104.446274   C1035.605225,102.220566 1030.785400,101.269478 1027.490723,101.444931   C1019.752014,101.857056 1013.560547,106.284409 1008.220337,111.538177   C1006.768799,112.966286 1005.698486,116.333824 1006.395203,117.998528   C1007.256165,120.055878 1009.938232,122.111237 1012.198486,122.657692   C1016.342896,123.659660 1020.752075,123.598961 1025.057861,123.870186   C1025.787476,123.916153 1026.725708,123.602791 1027.272095,123.120682   C1030.217651,120.522102 1033.069946,117.817833 1036.187988,114.413895  M439.922150,242.506393   C435.132629,242.868973 439.319397,247.195969 437.226074,248.810059   C437.180298,248.845383 437.993683,250.566589 438.450684,250.588837   C441.263092,250.725754 444.373413,251.348389 446.849396,250.404846   C451.900940,248.479797 458.179718,249.326874 461.943665,244.481400   C465.273102,240.195236 469.021149,235.947006 471.026978,231.044769   C471.985016,228.703293 469.603851,224.759796 468.234528,221.771317   C466.986755,219.048065 463.836853,217.546005 461.952454,219.973923   C459.285736,223.409851 457.572052,227.729263 456.090057,231.898224   C454.751862,235.662643 452.438171,237.860626 448.663818,237.743652   C444.929657,237.627945 442.300323,238.825775 439.922150,242.506393  M106.034439,42.546112   C110.918968,46.697857 116.555481,48.042210 122.530151,45.888126   C130.348526,43.069313 129.166122,34.887676 132.180527,29.234205   C128.428070,26.691185 122.562057,26.147448 115.406883,27.213238   C112.993713,27.572687 109.832352,28.392176 108.175690,27.275852   C103.927399,24.413183 102.949303,27.488926 101.517136,30.038776   C100.577538,31.711647 99.937325,33.552670 98.893181,35.933777   C100.977722,37.850574 103.244385,39.934826 106.034439,42.546112  M369.502686,364.932831   C365.726715,359.474182 359.083862,358.974548 354.594604,364.561676   C356.543640,366.672424 358.474213,368.996368 360.665680,371.040527   C361.804688,372.102966 363.671051,372.409241 364.750885,373.507416   C369.836945,378.680084 374.128571,384.606537 382.745636,384.503754   C388.002441,384.441010 392.890106,385.021912 395.666260,378.904266   C394.369873,378.289215 393.120270,377.362396 391.744232,377.100769   C385.468506,375.907776 380.090759,373.086945 375.319244,368.881165   C373.766754,367.512695 371.816956,366.594971 369.502686,364.932831  M553.672791,474.973450   C555.815674,475.171967 557.978333,475.647430 560.096252,475.496155   C562.529663,475.322296 566.327637,475.317261 567.032288,473.950073   C568.361816,471.370453 569.200073,467.104095 567.910217,464.909943   C565.319824,460.503540 561.468872,456.651276 557.500061,453.333710   C555.902405,451.998230 552.360596,451.906738 550.200623,452.664948   C548.444824,453.281342 546.191650,456.097321 546.309387,457.788208   C546.744385,464.038086 546.699219,470.772430 553.672791,474.973450  M36.124897,137.607224   C32.834358,139.916916 29.532516,142.211105 26.284466,144.579086   C26.110111,144.706207 26.430096,145.451767 26.448484,145.912292   C26.599535,149.695175 27.806999,153.855042 26.640934,157.180710   C24.468477,163.376648 28.183603,165.891800 32.581264,169.628387   C33.933472,164.750488 40.545715,164.386551 39.902000,157.873001   C39.415222,152.947433 40.876930,147.851974 40.688820,142.861618   C40.624931,141.166702 38.170647,139.561890 36.124897,137.607224  M474.270508,490.300934   C472.148346,492.247833 470.026154,494.194763 467.142273,496.840485   C469.985596,497.799316 471.730591,498.573822 473.557709,498.962708   C476.734039,499.638824 480.033020,499.814240 483.151978,500.668854   C489.827698,502.498077 496.090118,497.993134 495.880066,491.089417   C495.849091,490.071228 494.724213,488.326538 493.936523,488.224701   C490.794006,487.818512 487.551086,487.608093 484.409607,487.937866   C481.247620,488.269836 478.161957,489.329071 474.270508,490.300934  M476.027313,201.556046   C474.583313,200.480667 473.284363,199.012405 471.664215,198.414246   C468.589569,197.279114 464.753998,196.584274 463.153320,200.133820   C461.042114,204.815536 459.383759,210.011932 463.912537,215.473160   C469.229675,213.208710 474.679962,210.887543 479.874603,208.675247   C478.419586,205.808472 477.474915,203.947128 476.027313,201.556046  M407.593506,269.987579   C406.629852,271.889435 405.177246,273.705994 404.826752,275.714844   C404.392303,278.204742 404.331665,281.058136 405.196625,283.342957   C405.593079,284.390198 408.647491,285.039093 410.386780,284.851471   C414.869324,284.367859 417.313538,280.148804 415.771759,274.440460   C414.919891,271.286407 412.712555,267.980560 407.593506,269.987579  z" />
    <path fill="#48cb5f" stroke="none"
        d=" M867.467590,557.000000   C864.685425,554.182434 862.184753,551.491638 860.140198,548.490173   C859.215576,547.132751 859.159424,545.165955 858.793335,543.457703   C858.696106,543.003967 859.056152,542.452637 858.959900,541.998291   C856.588989,530.812927 860.398438,520.171265 861.913025,509.349762   C863.462585,498.279175 865.435242,487.266907 867.298401,476.241913   C867.679443,473.986969 868.596130,471.817352 868.919678,469.558807   C869.721985,463.958862 870.271362,458.322998 871.040955,452.717865   C871.255005,451.159332 871.543274,449.432526 872.379517,448.167725   C876.781860,441.508850 876.749146,433.313293 874.573730,427.163666   C871.232483,417.718353 870.415161,406.938782 862.121643,399.232666   C857.116089,394.581635 853.521301,388.268768 849.909180,382.327728   C848.325684,379.723267 847.791992,376.207703 847.632385,373.062683   C847.197327,364.487762 846.720093,355.854858 847.323486,347.320099   C847.533691,344.346863 850.841858,341.583496 852.765503,338.744873   C853.590576,337.527344 854.794006,336.476807 855.299133,335.150024   C856.429321,332.181366 856.265686,330.603638 852.220825,329.199310   C846.640381,327.261841 841.702637,323.386963 836.613220,320.147888   C832.335815,317.425690 828.409668,314.116669 824.008850,311.632812   C819.239380,308.940826 814.150146,306.788025 809.107117,304.616425   C804.969604,302.834717 800.464050,301.791382 796.549805,299.641296   C792.946106,297.661713 789.181458,295.188019 786.783508,291.967224   C782.028320,285.580383 778.257385,278.469238 773.896301,271.776917   C771.661377,268.347321 769.206360,265.019775 766.493286,261.963501   C765.410461,260.743683 763.363403,260.379761 760.557495,259.064941   C761.841553,265.609497 762.824341,270.583527 763.785889,275.561676   C763.911072,276.209808 764.135376,276.942505 763.957153,277.527405   C763.217041,279.957092 762.340271,282.345123 761.513611,284.748413   C759.065247,283.635986 755.848938,283.155853 754.313721,281.291504   C749.859863,275.882446 745.975098,269.988556 742.066040,264.151611   C738.054810,258.162018 734.029846,252.154312 730.513428,245.873215   C728.960510,243.099289 728.663940,239.626526 727.762573,236.480896   C727.455383,235.408707 727.262451,234.210938 726.642334,233.336411   C722.886536,228.039383 722.450500,222.357590 723.781433,216.136536   C724.439819,213.058884 724.336060,209.688797 723.918945,206.538147   C723.122986,200.526215 723.599121,193.233139 720.310791,188.965683   C716.768494,184.368622 716.598267,178.339508 711.539001,174.304398   C706.314575,170.137589 703.572021,163.008530 698.842407,158.031952   C693.543518,152.456436 687.723145,147.102692 678.801636,147.861649   C676.194763,148.083420 673.433838,146.725616 670.769287,145.997665   C660.658752,143.235504 651.075562,146.881256 641.286377,148.254532   C637.894714,148.730301 634.380249,148.330276 630.918579,147.794632   C626.093750,150.312759 623.095276,150.042984 618.409424,146.186630   C616.131775,144.312164 613.040466,143.002960 611.614746,140.651352   C610.483398,138.785355 610.224670,134.533340 611.468567,133.381180   C620.530273,124.987617 620.748779,114.736115 619.184448,103.681252   C618.757935,100.667114 620.627930,97.320366 620.171997,94.319519   C619.069824,87.065186 624.236633,85.121880 628.954773,82.485428   C630.513123,81.614632 632.113098,80.550797 633.220398,79.189857   C636.755493,74.845047 641.028564,76.039124 645.432800,77.091118   C652.571838,78.796387 659.728638,80.434204 666.904785,81.975235   C670.685486,82.787094 674.504639,83.736671 678.338928,83.911728   C685.205872,84.225258 692.097900,83.955734 698.978149,84.037315   C700.401489,84.054184 702.402405,84.040482 703.136780,84.897766   C706.019836,88.263344 708.214417,86.690865 710.323303,85.585014   C714.723694,86.126152 719.121643,86.688400 723.526611,87.189255   C724.334717,87.281151 725.320618,86.815407 725.970398,87.130707   C730.528687,89.342407 735.022644,91.686852 739.529175,94.004280   C739.960510,94.226044 740.299988,94.689423 740.745056,94.811768   C748.812012,97.029404 756.920776,99.102684 764.946716,101.458366   C767.940613,102.337090 770.688782,104.025925 773.654602,105.035065   C776.243835,105.916100 778.955139,106.529282 781.660767,106.951965   C784.394470,107.379021 787.187500,107.426460 790.699097,107.697716   C793.347900,103.831810 796.583252,99.637627 799.216125,95.094330   C801.198669,91.673271 801.906860,87.473938 804.062866,84.201080   C809.271484,76.294342 813.812988,75.211197 823.348999,80.719749   C829.921448,84.516319 835.798645,89.595238 843.962036,90.228424   C847.008301,90.464714 849.936951,92.299530 852.904846,93.442932   C856.437195,94.803802 856.753052,97.255058 854.523804,101.004349   C851.250061,106.510498 845.733826,109.287605 841.107910,113.213226   C836.666931,116.981842 833.142761,122.097664 830.116089,127.159843   C828.458191,129.932678 828.362671,133.803253 828.187500,137.210922   C828.125671,138.413300 829.721558,139.953934 830.901611,140.926178   C838.814087,147.444916 847.008728,153.635910 854.696899,160.404602   C857.655945,163.009720 859.530334,166.846832 861.992859,170.252579   C867.481384,167.649750 866.273560,162.199432 867.483154,158.212799   C869.385071,151.944336 869.907471,145.264969 871.215820,138.800446   C871.407532,137.853363 872.666199,136.464432 873.507324,136.407608   C882.605469,135.792969 891.399292,136.385651 899.062927,142.410965   C901.671326,144.461777 905.159546,145.354065 908.011353,147.148209   C910.019958,148.411835 911.971130,150.057068 913.362671,151.959930   C918.719849,159.285385 923.980835,166.690903 928.985046,174.260086   C931.105469,177.467300 930.429321,179.495377 925.880859,180.162445   C920.318787,180.978210 914.822510,182.585175 909.465271,184.356476   C904.290649,186.067398 902.171265,194.371185 905.379761,198.904343   C907.750793,202.254364 910.309326,205.508667 912.268616,209.087906   C912.776184,210.015121 911.646545,213.089279 910.760681,213.333435   C902.640259,215.571747 897.401489,221.673218 891.455811,226.902283   C888.495728,229.505447 884.813477,231.312836 881.974792,234.021835   C878.681335,237.164841 876.244995,241.213501 872.917542,244.311478   C867.375977,249.470779 867.833374,258.654205 860.182312,262.381744   C855.272339,264.773895 850.420654,266.452026 844.982422,264.880127   C843.938782,264.578461 842.595703,263.975403 842.165405,263.121216   C840.343567,259.504181 836.741699,259.558289 834.148682,260.294373   C824.708740,262.973907 815.459534,266.326752 806.153259,269.469849   C805.744385,269.607941 805.481934,270.179749 805.398438,270.273071   C807.332153,276.953583 809.189758,283.414093 811.075378,289.866425   C811.929443,292.788818 814.057129,294.811096 816.903076,293.779602   C821.031372,292.283386 824.819946,289.849792 829.733582,287.309235   C831.609375,292.439148 833.828491,296.930725 834.785950,301.676849   C835.432312,304.880646 836.730713,305.965363 839.541260,305.977203   C846.977295,306.008545 852.944885,308.584412 857.624512,314.719086   C859.057556,316.597656 863.103210,318.435577 864.926086,317.710785   C871.257080,315.193512 877.854553,316.982452 884.169189,315.514587   C885.882568,315.116333 888.170593,315.571838 889.739929,316.449158   C896.974731,320.493683 904.106262,324.732544 911.164368,329.080994   C918.108398,333.359222 924.593567,338.552185 931.920959,341.969635   C935.825317,343.790619 939.652283,345.563232 943.098206,348.080414   C944.891724,349.390533 946.103149,351.617615 948.003357,352.635071   C951.324646,354.413330 954.866760,356.017029 958.508545,356.910248   C966.725098,358.925293 975.220154,359.925964 983.296021,362.355896   C990.256775,364.450256 996.822327,367.887756 1003.508057,370.854401   C1007.293091,372.533905 1006.389648,375.480591 1005.091309,378.309418   C1004.557373,379.472839 1003.916199,380.762634 1002.951782,381.523346   C998.020264,385.413177 999.903870,391.566467 997.795898,396.347900   C996.987122,398.182617 995.487549,399.702026 994.424927,401.439789   C993.837830,402.399963 993.113708,403.516174 993.117310,404.559753   C993.145691,412.766449 987.256042,418.150757 983.687561,424.626312   C982.718445,426.384888 981.014771,427.785278 980.254761,429.603577   C978.182312,434.562195 977.379700,439.901947 971.839661,443.112701   C969.040527,444.734924 967.956360,449.087646 965.581848,451.745819   C963.796631,453.744202 961.364685,455.383881 958.913574,456.521912   C954.110718,458.751984 951.292175,462.963409 947.688904,466.447998   C944.424255,469.604980 940.602051,472.349731 936.629883,474.567383   C932.106873,477.092499 926.627014,478.117493 922.511597,481.102356   C917.860657,484.475586 914.257751,489.296417 910.210693,493.499023   C903.344116,500.629303 898.558472,509.355652 894.928040,518.200806   C892.369751,524.433899 888.647278,530.680542 888.645081,538.067505   C888.644104,541.375732 886.476257,544.644592 885.555115,548.003601   C884.827942,550.655396 884.503418,553.417725 884.000000,556.565430   C878.645081,557.000000 873.290100,557.000000 867.467590,557.000000  z" />
    <path fill="#48cb5f" stroke="none"
        d=" M1017.531372,0.999997   C1017.076172,4.164422 1016.152405,7.328849 1014.992493,11.301942   C1017.765442,11.493674 1021.401245,11.754287 1025.038330,11.994406   C1030.603149,12.361798 1036.210815,12.429547 1041.710449,13.236482   C1043.519531,13.501912 1045.050171,15.665336 1046.112305,16.495321   C1045.287842,19.536207 1044.656738,21.922430 1043.989746,24.298607   C1043.689087,25.369684 1043.570435,26.612679 1042.936279,27.449547   C1039.058716,32.566410 1035.054321,37.586960 1031.099243,42.644997   C1030.294067,43.674599 1029.685425,44.933041 1028.700073,45.733765   C1024.091309,49.479015 1024.278198,54.573471 1024.326538,59.773808   C1024.375610,65.036705 1025.227661,70.696106 1023.613159,75.466064   C1021.688721,81.151871 1018.016174,86.476456 1014.209473,91.245934   C1006.680786,100.678612 995.205383,105.726654 986.964539,114.253540   C980.895630,120.533226 973.267822,125.886551 970.728333,135.227737   C969.374146,140.208939 960.623169,141.630585 956.612427,138.427460   C953.786560,136.170639 950.172607,134.931091 947.146057,132.888412   C942.077576,129.467758 937.114441,126.017281 934.889160,119.706734   C933.061646,114.524261 930.278625,109.686630 928.123535,104.609413   C926.261719,100.223335 924.722839,95.701164 922.958435,91.272125   C922.580017,90.322319 921.885864,89.484375 921.264404,88.649017   C920.584045,87.734566 919.273010,86.938774 919.176575,85.995163   C918.305298,77.476143 914.634949,70.351181 908.701172,64.339561   C907.692200,63.317345 906.257690,62.667858 904.936096,62.015720   C903.773926,61.442261 902.230530,61.411476 901.310303,60.615303   C895.772217,55.823883 888.071594,55.822937 882.254517,51.902660   C879.609863,50.120354 876.633179,47.486919 875.909912,44.694862   C875.467041,42.984909 878.957214,40.194759 880.799927,37.989002   C881.400208,37.270386 882.575806,37.022575 883.149536,36.293053   C889.094238,28.733961 897.989380,25.966805 906.069519,21.777826   C910.372864,19.546856 914.087952,16.192352 918.123108,13.424488   C919.012207,12.814563 920.160400,12.116250 921.141235,12.181448   C927.709839,12.618058 934.294739,13.867913 940.812866,13.558552   C944.074890,13.403731 947.455383,10.860858 950.326721,8.771955   C953.042480,6.796249 955.162170,4.001240 957.272034,1.283293   C977.020874,1.000000 997.041809,1.000000 1017.531372,0.999997  z" />
    <path fill="#48cb5f" stroke="none"
        d=" M908.531372,1.000005   C908.062256,3.490356 907.703918,6.477917 906.075439,8.375626   C901.613220,13.575834 897.567627,18.908026 889.664368,20.377474   C883.186523,21.581884 877.217712,25.620218 871.100464,28.562796   C870.195801,28.998011 869.350342,30.229383 869.102478,31.244921   C867.779846,36.665295 864.223633,40.787121 861.224548,45.223835   C858.356689,49.466465 854.103394,51.725266 849.159424,51.125271   C846.506226,50.803288 844.069824,48.578243 841.568787,47.153618   C839.182373,45.794292 836.717773,44.526295 834.504700,42.919189   C830.986023,40.363911 831.370544,35.542362 834.944946,32.975292   C836.874939,31.589193 838.680725,29.952396 840.268372,28.182770   C844.190308,23.811172 844.081665,22.934124 838.397095,20.907364   C834.109253,19.378588 829.452087,18.899084 825.133118,17.438496   C823.219604,16.791365 821.735596,14.874433 820.056580,13.533908   C822.095276,11.692887 824.052124,8.397089 826.187683,8.276864   C833.298584,7.876559 838.705261,3.199987 845.144836,1.384511   C866.020874,1.000000 887.041809,1.000000 908.531372,1.000005  z" />
    <path fill="#48cb5f" stroke="none"
        d=" M287.566589,336.711853   C283.843506,333.323364 279.907227,330.133453 277.170624,326.124634   C270.757507,316.730164 264.919403,306.943146 258.846741,297.316193   C258.583496,296.898865 258.130188,296.521332 258.056274,296.076904   C257.221405,291.055817 254.344269,288.077087 249.831955,285.601624   C247.565018,284.357971 246.932007,280.316589 245.289597,277.710907   C242.913361,273.941010 239.809677,271.440277 234.892426,272.884003   C234.157043,273.099884 233.130249,273.036743 232.468628,272.677917   C226.971191,269.696442 221.582169,266.510834 216.035294,263.627502   C214.364655,262.759033 212.323349,262.468781 210.412201,262.226929   C206.826447,261.773193 203.211761,261.547882 199.609116,261.227539   C199.273041,261.726654 198.936966,262.225739 198.600906,262.724823   C201.579773,267.794861 203.693893,273.807159 207.836624,277.608948   C210.674652,280.213409 216.332123,279.762329 220.737274,280.636536   C223.683746,281.221252 228.129333,280.759338 229.269684,282.495819   C231.251312,285.513336 231.989700,289.927216 231.719040,293.644135   C231.532486,296.206146 229.103226,298.932648 227.033676,300.914703   C225.648727,302.241089 223.040695,302.192261 221.148682,303.107574   C217.049774,305.090576 213.089218,307.357666 209.013550,309.391266   C206.384491,310.703125 203.643692,311.789581 200.969269,313.012634   C199.940063,313.483337 198.955994,314.052704 197.951355,314.577087   C198.133667,315.152832 198.315979,315.728577 198.498291,316.304321   C201.622574,315.751923 204.746857,315.199554 208.446777,314.545380   C211.885468,318.961731 211.978378,322.825562 208.399170,329.113373   C207.150543,331.306915 206.668625,333.949127 205.355057,336.091156   C200.674393,343.723907 197.084427,351.949829 188.992126,357.344635   C185.179398,359.886505 183.241196,365.407745 180.863922,369.800995   C180.357666,370.736572 181.344528,372.822021 182.140991,374.056885   C184.581100,377.840088 184.103821,381.472382 183.111374,385.697906   C182.052902,390.204559 182.094955,395.111694 182.474594,399.777405   C182.923996,405.300507 182.555740,409.653564 176.991882,412.906952   C174.317871,414.470520 172.871765,418.272583 171.098831,421.199799   C169.314987,424.144989 168.088531,427.455383 166.113571,430.249298   C164.202408,432.952972 161.804230,434.814056 161.366837,438.849060   C161.145859,440.887604 158.143326,443.897644 156.713882,446.721283   C152.569550,454.907745 146.615295,461.593658 138.878967,466.496033   C136.713165,467.868469 133.734100,469.062439 131.348389,468.734650   C127.360786,468.186829 124.018837,468.258667 119.988495,469.636444   C112.338692,472.251556 107.089218,469.692139 105.065155,458.934418   C104.180382,454.231903 104.224319,449.344635 103.212906,444.678589   C102.080917,439.456238 99.886391,434.462250 98.783264,429.236115   C97.486839,423.094208 96.890732,416.805939 95.933350,410.589966   C95.736778,409.313660 95.237167,408.087006 94.965332,406.818573   C94.664246,405.413635 94.225838,403.979889 94.268044,402.571289   C94.367165,399.263031 95.317993,395.871399 94.834991,392.678253   C93.948769,386.819427 93.599762,380.251862 90.618484,375.486450   C86.295120,368.575806 87.362808,360.729462 84.429153,353.745026   C81.752457,347.372314 76.626610,346.542450 70.802841,346.374817   C62.535717,346.136902 54.274914,345.663330 46.007210,345.470947   C43.275593,345.407379 40.516766,346.179779 37.797520,346.040405   C36.100975,345.953491 33.744289,345.359375 32.921825,344.150574   C30.584524,340.715240 29.046690,336.747559 26.873798,333.184845   C25.391977,330.755188 23.541361,328.489868 21.556471,326.440857   C17.880077,322.645721 13.778799,319.243713 10.300073,315.286285   C9.193753,314.027710 9.500819,311.526764 9.036839,308.887238   C5.737337,307.724609 6.207496,305.044617 6.707492,301.307312   C7.266423,297.129547 5.738297,292.720032 8.694700,288.823792   C13.629700,282.319977 18.482790,275.753296 23.306147,269.166046   C24.460875,267.589020 25.720385,265.944031 26.315029,264.128326   C28.209375,258.344086 32.249538,254.647308 37.064587,251.221283   C42.005116,247.705963 46.396530,243.417847 51.018929,239.457062   C52.557899,238.138367 54.068020,236.786026 56.913818,234.288391   C53.149464,233.737793 50.367039,233.500427 47.673393,232.878510   C45.810719,232.448441 44.024166,231.582596 42.289349,230.735794   C40.685493,229.952911 39.299530,228.583481 37.634804,228.093719   C33.772678,226.957458 32.389290,225.403595 33.708481,220.937973   C35.031784,216.458466 34.720482,211.500122 35.162354,206.755081   C35.647331,201.547226 40.675373,199.175507 47.460682,200.118011   C52.700184,200.845779 58.343670,202.206589 63.264889,197.091080   C60.945980,193.462753 58.593987,189.782639 56.048363,185.799576   C56.661709,185.111679 57.339020,183.629868 58.156906,183.547714   C65.437134,182.816528 70.376556,177.922760 75.510262,173.655670   C77.920601,171.652206 79.360992,168.421341 81.057320,165.634918   C83.090195,162.295654 84.882843,158.811142 86.860680,155.437103   C89.021439,151.751022 92.229355,151.533325 95.689148,154.072571   C99.186699,156.639526 102.917542,159.054092 106.873581,160.788742   C111.754517,162.928955 119.437500,158.531387 120.808609,154.599335   C121.427109,152.825653 122.585022,151.125351 123.856560,149.714798   C128.306335,144.778534 132.874878,139.946915 137.491455,135.165497   C138.374985,134.250397 139.784271,133.863373 140.767136,133.018753   C142.099335,131.873947 143.254166,130.522736 144.120773,129.633759   C140.267075,127.685020 136.822098,126.549561 134.148361,124.437698   C130.790604,121.785545 131.094635,118.263405 133.614304,114.834816   C135.406754,112.395775 136.950760,109.774139 138.605637,107.233994   C138.258133,106.820984 137.910645,106.407974 137.563156,105.994965   C136.511246,106.368210 135.448196,106.712936 134.409149,107.119110   C124.418694,111.024529 123.215157,119.180450 123.953049,128.411484   C124.145126,130.814514 123.022705,133.415237 123.551605,135.680557   C124.884903,141.391113 120.163788,144.588135 118.246040,148.745712   C115.836731,153.968948 102.216904,153.689880 99.555328,149.022018   C98.136414,146.533539 96.570015,144.129181 94.571724,140.875168   C92.971161,141.383759 90.738274,142.240982 88.431564,142.785278   C86.062195,143.344330 83.556252,144.087387 81.237473,143.782166   C80.045471,143.625275 78.108070,141.229904 78.256332,140.069550   C79.247559,132.311478 80.433548,124.553673 82.090660,116.911644   C84.097267,107.657928 88.598717,99.582977 95.535034,93.077415   C97.030304,91.675003 99.307159,90.925987 101.355797,90.326202   C108.369156,88.272850 115.475555,86.535156 122.477867,84.447029   C126.645630,83.204178 130.719925,81.619934 134.774841,80.032318   C143.917358,76.452766 153.610352,76.474907 162.698853,78.420517   C169.874252,79.956589 176.516464,84.457710 183.083115,88.191383   C187.260666,90.566658 187.123795,96.961884 183.401031,102.016197   C182.284393,103.532242 181.072098,104.979134 179.985199,106.515419   C178.783371,108.214172 177.994049,110.398911 176.429276,111.587791   C175.079605,112.613220 172.893570,112.537811 170.676468,113.039841   C175.603027,117.956558 179.063477,118.253647 184.229050,115.324898   C188.429062,112.943588 193.136841,111.403801 197.167313,108.792900   C201.097427,106.247017 204.435272,102.793144 208.072922,99.786011   C209.282639,98.785965 210.549194,97.268150 211.903809,97.133385   C217.219315,96.604576 222.099747,93.856567 227.769379,94.791306   C232.074097,95.501022 236.603027,95.109390 241.008972,94.835121   C243.144302,94.702194 246.128250,94.392799 247.178833,92.997154   C252.128677,86.421524 256.534393,79.436859 261.161316,72.616501   C261.520660,72.086792 262.100861,71.295547 262.557770,71.309357   C265.826752,71.408180 269.462097,70.849777 272.268555,72.099785   C276.473297,73.972603 277.277863,77.663620 275.475677,82.316849   C274.089294,85.896484 272.924591,89.368706 273.348633,93.953484   C273.978790,100.767082 278.408173,98.118042 281.070740,98.701866   C283.698456,99.278053 286.716583,97.809357 288.251404,101.481926   C288.465240,101.993546 290.335938,101.812714 291.675537,101.982300   C289.829651,95.324127 287.294830,89.120644 286.731323,82.742989   C286.496460,80.084747 289.992981,76.495804 292.612518,74.314293   C297.710876,70.068451 303.281616,66.352760 308.870544,62.749153   C311.558319,61.016144 314.716156,59.999443 317.689514,58.724518   C325.989471,55.165627 334.294373,51.617905 342.616394,48.110973   C348.847290,45.485245 355.107758,42.929714 361.354797,40.342323   C361.508728,40.278572 361.656525,40.157757 361.812622,40.147549   C367.718353,39.761490 373.702484,38.667973 379.499786,39.296131   C382.619049,39.634117 385.748657,42.577789 388.278900,44.973793   C391.511597,48.034992 394.252960,51.648258 396.938446,55.224583   C397.442688,55.896118 396.690613,57.511047 396.518311,58.690636   C391.970917,57.641354 391.278320,62.758297 388.111115,64.008957   C387.225922,64.358505 386.730804,65.695969 386.056763,66.580246   C387.117523,67.380814 388.354065,69.029442 389.212097,68.851608   C398.444458,66.938133 407.235565,70.216843 416.221008,70.695488   C422.593414,71.034943 428.495178,71.081284 432.794769,76.281075   C438.545197,74.805527 444.286041,73.763199 449.659637,71.743698   C451.839752,70.924362 453.020630,67.733360 455.034851,66.083893   C456.364166,64.995270 458.559296,63.902760 460.036865,64.243324   C465.858337,65.585091 471.575470,67.413559 477.259003,69.281410   C478.063629,69.545853 478.638824,70.958466 479.031647,71.953590   C481.885071,79.181679 483.560394,80.064194 492.015900,80.195137   C495.457520,80.248428 498.863678,81.500832 502.319855,81.942406   C508.515930,82.734047 514.787354,83.030197 520.937378,84.066948   C530.864075,85.740364 540.695374,87.975716 550.613098,89.709816   C554.982300,90.473770 559.525574,90.274544 563.874268,91.112427   C566.731201,91.662903 569.341431,93.397247 572.133728,94.402733   C576.328796,95.913368 580.588013,97.245911 584.817383,98.661705   C588.235229,99.805840 591.595642,101.189362 595.088806,102.010208   C596.713013,102.391876 598.591736,101.690369 600.689453,101.439957   C606.893433,109.539490 601.784302,116.492912 596.641541,124.254814   C593.243469,123.431969 589.104065,121.902382 584.867188,121.551964   C580.633362,121.201820 576.431519,121.600578 572.931824,125.300880   C569.991638,128.409653 565.966431,130.495728 562.402100,133.006851   C561.880371,133.374374 561.094360,133.448761 560.695435,133.895279   C558.035645,136.872040 555.966309,139.281815 550.709229,138.463867   C546.492920,137.807877 541.771423,141.695175 537.113403,142.275543   C530.215942,143.134903 530.329224,149.282990 528.176025,153.253922   C524.115662,160.742050 522.101074,169.409454 517.609314,176.565613   C515.175659,180.442917 509.483704,182.387283 505.060455,184.840927   C503.569672,185.667877 501.458984,185.377243 499.631622,185.597397   C499.314667,186.261642 498.997711,186.925903 498.680756,187.590164   C497.665405,186.093399 496.689178,184.568161 495.625061,183.106918   C494.205963,181.158157 493.971069,179.779694 496.150482,177.823044   C498.212708,175.971573 500.174988,173.304230 500.768280,170.676682   C501.810913,166.059128 504.193085,162.704712 507.058838,159.055161   C511.669769,153.183182 515.063477,146.365768 519.118164,140.041870   C520.906494,137.252792 523.054443,134.694290 525.039124,132.031113   C524.864014,131.522614 524.688843,131.014114 524.513672,130.505615   C516.650085,132.004700 508.580109,132.847351 500.995209,135.232590   C495.900543,136.834732 491.526917,140.680649 486.769135,143.415543   C480.551483,146.989609 474.619934,151.015808 466.749512,150.458572   C462.800751,150.179016 458.223267,150.622040 454.874847,152.459686   C451.903320,154.090500 450.237610,158.100647 447.247742,162.047577   C452.427551,163.823395 457.360626,164.872314 461.613953,167.176178   C465.013519,169.017609 468.405151,171.953445 470.157227,175.271225   C470.954987,176.781891 467.979706,180.511124 466.377441,183.017792   C462.623505,188.890854 458.815277,194.742294 454.720520,200.378387   C452.933960,202.837463 450.525330,204.909256 448.159668,206.867615   C444.715881,209.718521 441.153320,212.451157 437.461609,214.970795   C433.340546,217.783432 434.198120,222.767105 432.140106,226.493973   C431.031006,228.502457 431.715424,231.430573 430.883240,233.682312   C430.021057,236.015244 428.303619,238.032059 426.626740,240.722183   C420.400940,236.009491 414.752930,231.734177 408.692596,227.146744   C408.291412,227.691772 406.999237,228.746429 407.186798,229.297348   C410.040649,237.680710 405.606812,245.298187 404.869049,253.280960   C404.440948,257.912811 404.579010,262.612885 403.915100,267.203156   C403.014801,273.427826 398.092865,276.446045 393.223694,279.421600   C391.675507,280.367706 390.392609,281.752472 389.005005,282.955719   C386.976379,284.714874 384.912628,286.437775 382.953888,288.272278   C379.412048,291.589447 379.447296,295.396759 381.271759,299.628845   C383.047241,303.747192 384.813202,307.930481 385.893799,312.257477   C386.323181,313.976776 385.500458,316.912689 384.184540,317.964874   C381.860107,319.823334 378.810272,320.952057 375.898865,321.851501   C372.655823,322.853455 369.163971,323.984589 365.901733,323.694611   C363.285065,323.461975 360.769623,321.315369 358.364868,319.775208   C356.998138,318.899872 355.944061,317.536377 354.470520,316.126068   C353.920288,316.893677 353.064484,317.547699 353.139435,318.067474   C353.806641,322.693298 354.607880,327.300842 355.428589,331.903229   C356.642303,338.709656 361.533356,344.596802 360.506012,351.948212   C360.301971,353.408569 360.063721,355.396851 359.098511,356.059052   C358.239746,356.648193 355.931610,356.222015 354.988922,355.405792   C350.366821,351.403870 345.579926,347.458405 341.714691,342.779663   C340.082611,340.804077 339.988678,337.026947 340.228455,334.154907   C340.630493,329.339264 338.007538,325.604095 336.765381,321.384613   C336.552246,320.660706 336.229004,319.746826 336.482727,319.141113   C340.450134,309.670959 333.642548,305.240234 327.775635,300.377045   C327.153625,299.861389 326.140778,299.690948 325.721222,299.078217   C323.265259,295.491669 320.931946,291.821106 318.531219,288.139038   C306.898224,293.932831 303.346497,304.643433 298.988556,314.811340   C295.780579,322.296173 294.260071,330.658508 287.566589,336.711853  M144.964554,245.552856   C148.716614,245.014374 152.473480,244.506119 156.216858,243.912872   C157.003555,243.788193 157.754669,243.065796 158.498581,243.102142   C166.074432,243.471878 170.105713,239.025146 173.090973,232.819427   C174.853012,229.156525 173.455338,228.800385 170.100266,228.846710   C161.810410,228.961212 153.515182,228.688370 145.222122,228.571228   C145.099091,227.917221 144.976044,227.263214 144.853012,226.609207   C146.081497,225.672195 147.491394,224.897705 148.504120,223.767380   C151.422806,220.509766 156.191986,218.934753 157.282639,213.899017   C157.429169,213.222534 159.869843,212.529800 161.138992,212.693115   C169.201004,213.730545 177.232315,215.006424 185.273758,216.203705   C185.646744,215.639084 186.019730,215.074448 186.392700,214.509827   C185.654892,212.899185 185.129913,211.140747 184.135300,209.708435   C182.018051,206.659500 179.425705,203.923981 177.469910,200.784729   C175.947525,198.341125 175.528931,195.137375 173.786087,192.929581   C172.660294,191.503479 169.819153,190.313599 168.116623,190.690155   C164.416260,191.508636 161.038574,193.695145 157.365448,194.756149   C154.420364,195.606857 151.077393,195.175369 148.214233,196.178406   C146.510574,196.775269 144.398697,198.927963 144.202225,200.586380   C143.652527,205.225754 144.329346,210.001953 143.898254,214.666489   C143.541992,218.521393 142.308594,222.296890 141.441711,226.102524   C140.568436,229.936218 138.441788,230.186630 135.486282,228.190582   C128.662308,223.581924 121.764099,219.079483 115.040016,214.330078   C113.853554,213.492050 113.698372,211.058289 112.497482,210.399490   C106.815857,207.282623 100.936562,204.526093 94.857010,201.506699   C93.496918,204.862991 93.302795,207.780106 96.195747,210.836761   C99.835228,214.682220 102.977234,218.998505 106.333900,223.111633   C106.063370,223.647583 105.792839,224.183548 105.522308,224.719498   C99.943016,223.774246 94.350739,222.894821 88.800758,221.800858   C88.102699,221.663254 87.582130,220.426178 87.059044,219.645126   C86.214363,218.383896 85.684509,216.784851 84.580345,215.849487   C81.856979,213.542557 78.882919,211.531570 75.448181,208.985397   C68.198303,214.595047 62.969540,223.881088 57.597721,234.700592   C59.938198,234.393845 61.642460,234.559906 62.969208,233.930374   C69.300957,230.925980 75.734001,229.138824 82.582306,231.877975   C90.862770,235.189957 99.073891,238.675507 107.310539,242.096695   C108.663445,242.658646 110.013405,243.234711 111.330399,243.874863   C117.383308,246.817017 123.097237,251.548676 130.463638,247.318787   C130.973358,247.026093 131.749496,247.211411 132.398834,247.145584   C136.350281,246.744919 140.300873,246.335876 144.964554,245.552856  M180.025070,288.533264   C176.459824,282.944519 173.109070,277.200531 169.228867,271.839752   C167.565247,269.541382 164.800690,268.039856 162.536346,266.176270   C162.271530,268.921112 161.452286,271.752197 161.863037,274.391907   C162.605133,279.160980 164.244202,283.783325 165.192307,288.530121   C165.774704,291.445892 165.351578,294.593384 166.128311,297.432068   C167.230255,301.459229 170.263885,305.320221 170.193665,309.211090   C170.111847,313.744415 172.136124,314.449463 175.358963,315.011536   C181.117722,316.015808 186.868973,317.085297 192.657776,317.875458   C193.736847,318.022736 194.977386,316.987274 196.233826,316.459686   C190.732010,306.838745 185.645935,297.944763 180.025070,288.533264  z" />
    <path fill="#48cb5f" stroke="none"
        d=" M506.996979,434.185303   C505.348053,439.670410 503.778473,444.765228 502.024017,449.795563   C500.498779,454.168793 498.596008,458.416718 497.221985,462.832611   C496.790375,464.219727 497.895447,466.025024 497.672363,467.547333   C496.739197,473.914551 489.708832,478.241821 483.075928,480.030853   C477.176300,481.622070 471.256531,482.070618 465.252411,480.960510   C464.183960,480.762939 462.944763,480.379852 462.213013,479.651703   C457.735748,475.196686 453.389648,470.610138 448.977478,466.089233   C448.430969,465.529205 447.730438,464.648987 447.137909,464.677551   C441.544891,464.947235 436.264557,463.367157 430.265015,464.723663   C417.781067,467.546326 406.370117,474.639435 393.044739,474.066284   C389.337738,473.906799 387.519775,473.010437 386.841736,468.858032   C385.268250,459.221863 383.048248,449.684540 380.855927,440.161102   C380.338715,437.914368 378.592987,435.970032 377.932983,433.732971   C375.774261,426.415863 377.345703,422.200531 383.998138,419.140747   C387.583801,417.491516 391.755707,417.166840 395.574280,415.962769   C402.158875,413.886444 409.192444,413.860046 415.311798,409.464752   C422.708557,404.152008 430.998291,400.058624 439.046051,395.704620   C440.115448,395.126068 442.441010,395.616150 443.488037,396.467865   C447.855621,400.020844 451.867340,404.009521 456.208466,407.597748   C457.581757,408.732849 460.175262,410.171356 461.151276,409.614594   C462.865173,408.636810 463.797150,406.249542 464.971924,404.398834   C465.205627,404.030609 464.878632,403.301208 465.117035,402.942078   C466.666504,400.608215 468.300690,398.330627 469.907166,396.034607   C471.552612,397.853394 473.171600,399.697021 474.848846,401.486053   C478.978394,405.890808 482.908478,410.515656 487.335419,414.600464   C493.352173,420.152161 499.794983,425.240204 505.944092,430.653168   C506.656433,431.280212 506.662506,432.709595 506.996979,434.185303  z" />
    <path fill="#48cb5f" stroke="none"
        d=" M818.084229,70.558350   C817.257935,67.613022 816.684875,64.960762 815.990967,61.749317   C820.054932,60.452950 823.905212,58.191288 827.727478,58.237736   C834.117676,58.315395 839.183777,62.293118 843.968262,66.396683   C846.432434,68.510201 849.137512,71.065453 852.107422,71.716507   C858.312744,73.076805 864.752380,73.508537 871.121582,73.940567   C876.972778,74.337456 882.327942,74.642105 887.258545,79.132988   C889.841370,81.485466 894.024109,81.847450 894.304810,86.586838   C894.749084,94.086868 895.851929,101.571770 895.880554,109.066116   C895.912109,117.318016 887.495667,123.802231 878.984863,122.947655   C876.800720,122.728355 874.422729,123.465561 872.401123,122.864334   C870.165100,122.199341 866.578979,120.595543 866.502441,119.236191   C866.316833,115.937073 866.878662,110.532555 868.848816,109.604256   C872.971252,107.661758 872.433289,104.777092 871.799255,102.296783   C869.694824,94.063545 866.325317,86.379402 857.517151,83.176025   C855.451172,82.424660 852.767761,82.570923 850.573181,83.121140   C843.557007,84.880264 838.225708,81.747375 832.878967,77.955650   C830.741516,76.439842 828.126221,75.599213 825.732483,74.442940   C823.264954,73.251045 820.802246,72.049011 818.084229,70.558350  z" />
    <path fill="#48cb5f" stroke="none"
        d=" M765.228027,91.667305   C764.290649,91.275314 763.599670,91.212868 763.031006,90.916039   C757.601868,88.082367 752.164124,85.262810 746.787476,82.331657   C741.533325,79.467331 740.274048,74.092979 743.217773,67.653992   C744.422424,65.019020 751.181030,65.162582 755.089478,65.199402   C761.987000,65.264374 768.014160,69.543091 775.496033,67.671913   C779.856140,66.581474 785.405396,69.178482 790.044739,71.046989   C791.157410,71.495132 791.307556,75.724510 790.969421,78.081329   C790.346924,82.420479 789.515198,86.858223 787.862488,90.881813   C786.439697,94.345268 782.848572,95.591942 779.139160,94.933044   C774.567139,94.120926 770.063965,92.920639 765.228027,91.667305  z" />
    <path fill="#48cb5f" stroke="none"
        d=" M47.878693,170.141693   C47.982422,162.163223 47.850082,154.578659 48.103966,147.007034   C48.242332,142.880524 50.514778,138.197052 49.184402,134.798279   C47.227837,129.799744 49.730534,127.860062 52.008759,125.560143   C55.446312,126.456039 58.559681,127.096909 61.551628,128.099976   C64.044380,128.935669 66.461624,130.058960 66.018875,133.540527   C65.353760,138.770660 67.757713,142.987610 70.583344,147.111328   C74.173195,152.350403 74.437202,162.891800 67.335976,168.290527   C63.391071,171.289642 59.618122,174.702332 55.244022,176.873825   C52.905777,178.034592 48.907463,177.910095 46.663502,176.618866   C44.451927,175.346268 45.523388,172.279739 47.878693,170.141693  z" />
    <path fill="#48cb5f" stroke="none"
        d=" M251.993469,54.008728   C248.648300,55.615501 245.817902,57.661129 242.662781,58.536709   C231.289322,61.692959 226.981964,70.825470 222.920059,80.487747   C221.797638,83.157753 219.806122,85.752724 217.562714,87.585854   C214.906952,89.755959 210.825394,87.488464 211.087616,84.048965   C211.580505,77.583527 212.101212,71.238678 216.591782,65.662430   C220.984421,60.207745 223.823135,53.492451 228.273529,48.097294   C230.610611,45.264107 234.741241,43.363213 238.422745,42.341805   C242.023911,41.342693 246.201385,42.541485 249.902512,41.741722   C252.585281,41.162010 255.087357,40.961449 255.523315,43.527897   C256.040741,46.573795 259.176392,50.584774 254.100372,52.971104   C253.504440,53.251266 252.938873,53.595978 251.993469,54.008728  z" />
    <path fill="#48cb5f" stroke="none"
        d=" M196.282776,398.178528   C198.356934,392.227997 203.354584,397.519043 206.121841,395.125854   C207.081085,397.189026 208.786118,399.226807 208.857285,401.320190   C209.056992,407.193848 208.177872,412.745300 204.786804,418.100250   C201.686676,422.995789 200.573120,429.111328 197.812637,434.276917   C196.536682,436.664581 193.382858,439.605103 191.153931,439.545502   C188.155579,439.465393 184.448273,439.534760 182.516113,434.336609   C180.271347,428.297424 180.840149,422.468475 182.815887,417.872620   C185.851547,410.811249 191.488968,404.868378 196.282776,398.178528  z" />
    <path fill="#48cb5f" stroke="none"
        d=" M533.403137,519.947205   C530.576965,519.676514 528.114319,519.411072 524.427979,519.013733   C520.281311,516.811035 523.018005,511.705933 522.388489,507.503662   C522.322693,507.064453 523.125244,506.486603 523.539734,505.985352   C529.011597,499.368958 534.826538,493.000305 539.837402,486.051666   C543.050781,481.595581 547.265381,481.432220 551.493408,482.065002   C554.189148,482.468445 556.769226,483.651947 556.773560,488.295105   C556.780151,495.287720 552.884094,500.003937 550.074951,505.539795   C548.073059,509.484863 546.036438,513.093994 541.970764,515.232239   C539.180420,516.699829 536.497498,518.371826 533.403137,519.947205  z" />
    <path fill="#48cb5f" stroke="none"
        d=" M477.216705,373.989838   C482.168854,376.607147 486.744629,379.180969 491.178162,381.980133   C491.331604,382.076996 490.164215,385.489380 489.442383,385.557648   C483.038727,386.163208 476.589264,386.724609 470.167603,386.594269   C461.169250,386.411621 453.940887,382.451721 448.959259,374.801788   C446.033722,370.309204 443.214417,365.747406 440.140381,360.889709   C442.485992,355.998901 446.216522,358.436279 449.347229,359.969025   C458.578308,364.488403 467.670746,369.290955 477.216705,373.989838  z" />
    <path fill="#48cb5f" stroke="none"
        d=" M405.014343,353.932587   C404.024109,355.676880 403.140503,357.064606 402.228882,358.433655   C397.347443,365.764008 394.633575,366.670013 386.619568,363.804504   C383.772980,362.786621 380.792267,362.104523 378.035187,360.898010   C377.127777,360.500946 375.942596,358.565735 376.225372,357.962860   C378.664459,352.762665 379.523071,346.618835 385.148224,343.252441   C389.367371,340.727448 393.361115,337.822449 397.426208,335.044281   C401.787598,332.063538 406.730225,333.712952 407.797821,338.893433   C408.522461,342.409729 409.889618,346.160706 407.036224,349.600006   C406.124329,350.699219 405.735931,352.232666 405.014343,353.932587  z" />
    <path fill="#48cb5f" stroke="none"
        d=" M797.184570,25.676254   C801.141968,15.655730 810.660278,14.271627 817.650330,21.987196   C820.660950,25.310194 824.654114,27.762308 827.540527,31.169531   C828.777527,32.629780 829.205139,35.871742 828.469299,37.681679   C826.880371,41.589989 824.301880,45.096001 821.591492,49.672890   C813.911865,45.100872 806.198242,41.204826 799.428650,36.065304   C797.326416,34.469215 797.784546,29.500679 797.184570,25.676254  z" />
    <path fill="#48cb5f" stroke="none"
        d=" M801.163208,51.699684   C803.172363,52.728340 805.473267,53.073601 806.528992,54.405704   C807.684387,55.863686 808.715332,59.317547 807.997803,59.996727   C806.065796,61.825214 803.183044,63.627583 800.660706,63.651646   C795.299927,63.702797 789.899841,62.798260 784.569580,61.948277   C779.760315,61.181355 774.969116,60.158577 770.277527,58.860046   C768.150818,58.271420 765.578430,57.206036 764.474792,55.525288   C763.029602,53.324104 761.414551,49.022713 762.415527,47.907681   C764.252197,45.861889 768.035461,44.403366 770.853088,44.628483   C777.768066,45.180958 784.632690,46.655495 791.441528,48.114197   C794.685852,48.809258 797.756775,50.313477 801.163208,51.699684  z" />
    <path fill="#48cb5f" stroke="none"
        d=" M839.443604,285.976196   C837.473145,283.954590 835.766968,282.143524 834.060791,280.332520   C835.660095,279.200226 837.134033,277.426117 838.887634,277.083496   C841.636047,276.546509 844.609009,276.695770 847.423462,277.053497   C853.883423,277.874603 860.287415,279.135651 866.747314,279.957214   C872.969788,280.748566 879.914795,288.932129 878.604370,294.970245   C878.338989,296.193085 874.938599,297.822510 873.352844,297.492096   C864.326416,295.611328 855.351990,293.399872 846.497864,290.825958   C843.996399,290.098785 841.958435,287.777130 839.443604,285.976196  z" />
    <path fill="#48cb5f" stroke="none"
        d=" M1036.071289,114.781982   C1033.069946,117.817833 1030.217651,120.522102 1027.272095,123.120682   C1026.725708,123.602791 1025.787476,123.916153 1025.057861,123.870186   C1020.752075,123.598961 1016.342896,123.659660 1012.198486,122.657692   C1009.938232,122.111237 1007.256165,120.055878 1006.395203,117.998528   C1005.698486,116.333824 1006.768799,112.966286 1008.220337,111.538177   C1013.560547,106.284409 1019.752014,101.857056 1027.490723,101.444931   C1030.785400,101.269478 1035.605225,102.220566 1037.138306,104.446274   C1038.588501,106.551773 1036.641113,110.997459 1036.071289,114.781982  z" />
    <path fill="#48cb5f" stroke="none"
        d=" M440.189331,242.239441   C442.300323,238.825775 444.929657,237.627945 448.663818,237.743652   C452.438171,237.860626 454.751862,235.662643 456.090057,231.898224   C457.572052,227.729263 459.285736,223.409851 461.952454,219.973923   C463.836853,217.546005 466.986755,219.048065 468.234528,221.771317   C469.603851,224.759796 471.985016,228.703293 471.026978,231.044769   C469.021149,235.947006 465.273102,240.195236 461.943665,244.481400   C458.179718,249.326874 451.900940,248.479797 446.849396,250.404846   C444.373413,251.348389 441.263092,250.725754 438.450684,250.588837   C437.993683,250.566589 437.180298,248.845383 437.226074,248.810059   C439.319397,247.195969 435.132629,242.868973 440.189331,242.239441  z" />
    <path fill="#48cb5f" stroke="none"
        d=" M105.772736,42.282593   C103.244385,39.934826 100.977722,37.850574 98.893181,35.933777   C99.937325,33.552670 100.577538,31.711647 101.517136,30.038776   C102.949303,27.488926 103.927399,24.413183 108.175690,27.275852   C109.832352,28.392176 112.993713,27.572687 115.406883,27.213238   C122.562057,26.147448 128.428070,26.691185 132.180527,29.234205   C129.166122,34.887676 130.348526,43.069313 122.530151,45.888126   C116.555481,48.042210 110.918968,46.697857 105.772736,42.282593  z" />
    <path fill="#48cb5f" stroke="none"
        d=" M369.775757,365.201965   C371.816956,366.594971 373.766754,367.512695 375.319244,368.881165   C380.090759,373.086945 385.468506,375.907776 391.744232,377.100769   C393.120270,377.362396 394.369873,378.289215 395.666260,378.904266   C392.890106,385.021912 388.002441,384.441010 382.745636,384.503754   C374.128571,384.606537 369.836945,378.680084 364.750885,373.507416   C363.671051,372.409241 361.804688,372.102966 360.665680,371.040527   C358.474213,368.996368 356.543640,366.672424 354.594604,364.561676   C359.083862,358.974548 365.726715,359.474182 369.775757,365.201965  z" />
    <path fill="#48cb5f" stroke="none"
        d=" M553.287231,474.940613   C546.699219,470.772430 546.744385,464.038086 546.309387,457.788208   C546.191650,456.097321 548.444824,453.281342 550.200623,452.664948   C552.360596,451.906738 555.902405,451.998230 557.500061,453.333710   C561.468872,456.651276 565.319824,460.503540 567.910217,464.909943   C569.200073,467.104095 568.361816,471.370453 567.032288,473.950073   C566.327637,475.317261 562.529663,475.322296 560.096252,475.496155   C557.978333,475.647430 555.815674,475.171967 553.287231,474.940613  z" />
    <path fill="#48cb5f" stroke="none"
        d=" M36.466782,137.761566   C38.170647,139.561890 40.624931,141.166702 40.688820,142.861618   C40.876930,147.851974 39.415222,152.947433 39.902000,157.873001   C40.545715,164.386551 33.933472,164.750488 32.581264,169.628387   C28.183603,165.891800 24.468477,163.376648 26.640934,157.180710   C27.806999,153.855042 26.599535,149.695175 26.448484,145.912292   C26.430096,145.451767 26.110111,144.706207 26.284466,144.579086   C29.532516,142.211105 32.834358,139.916916 36.466782,137.761566  z" />
    <path fill="#48cb5f" stroke="none"
        d=" M474.656677,490.185272   C478.161957,489.329071 481.247620,488.269836 484.409607,487.937866   C487.551086,487.608093 490.794006,487.818512 493.936523,488.224701   C494.724213,488.326538 495.849091,490.071228 495.880066,491.089417   C496.090118,497.993134 489.827698,502.498077 483.151978,500.668854   C480.033020,499.814240 476.734039,499.638824 473.557709,498.962708   C471.730591,498.573822 469.985596,497.799316 467.142273,496.840485   C470.026154,494.194763 472.148346,492.247833 474.656677,490.185272  z" />
    <path fill="#48cb5f" stroke="none"
        d=" M476.278748,201.820923   C477.474915,203.947128 478.419586,205.808472 479.874603,208.675247   C474.679962,210.887543 469.229675,213.208710 463.912537,215.473160   C459.383759,210.011932 461.042114,204.815536 463.153320,200.133820   C464.753998,196.584274 468.589569,197.279114 471.664215,198.414246   C473.284363,199.012405 474.583313,200.480667 476.278748,201.820923  z" />
    <path fill="#48cb5f" stroke="none"
        d=" M407.864868,269.715149   C412.712555,267.980560 414.919891,271.286407 415.771759,274.440460   C417.313538,280.148804 414.869324,284.367859 410.386780,284.851471   C408.647491,285.039093 405.593079,284.390198 405.196625,283.342957   C404.331665,281.058136 404.392303,278.204742 404.826752,275.714844   C405.177246,273.705994 406.629852,271.889435 407.864868,269.715149  z" />
    <path fill="transparent" stroke="none"
        d=" M144.608154,245.741241   C140.300873,246.335876 136.350281,246.744919 132.398834,247.145584   C131.749496,247.211411 130.973358,247.026093 130.463638,247.318787   C123.097237,251.548676 117.383308,246.817017 111.330399,243.874863   C110.013405,243.234711 108.663445,242.658646 107.310539,242.096695   C99.073891,238.675507 90.862770,235.189957 82.582306,231.877975   C75.734001,229.138824 69.300957,230.925980 62.969208,233.930374   C61.642460,234.559906 59.938198,234.393845 57.597721,234.700592   C62.969540,223.881088 68.198303,214.595047 75.448181,208.985397   C78.882919,211.531570 81.856979,213.542557 84.580345,215.849487   C85.684509,216.784851 86.214363,218.383896 87.059044,219.645126   C87.582130,220.426178 88.102699,221.663254 88.800758,221.800858   C94.350739,222.894821 99.943016,223.774246 105.522308,224.719498   C105.792839,224.183548 106.063370,223.647583 106.333900,223.111633   C102.977234,218.998505 99.835228,214.682220 96.195747,210.836761   C93.302795,207.780106 93.496918,204.862991 94.857010,201.506699   C100.936562,204.526093 106.815857,207.282623 112.497482,210.399490   C113.698372,211.058289 113.853554,213.492050 115.040016,214.330078   C121.764099,219.079483 128.662308,223.581924 135.486282,228.190582   C138.441788,230.186630 140.568436,229.936218 141.441711,226.102524   C142.308594,222.296890 143.541992,218.521393 143.898254,214.666489   C144.329346,210.001953 143.652527,205.225754 144.202225,200.586380   C144.398697,198.927963 146.510574,196.775269 148.214233,196.178406   C151.077393,195.175369 154.420364,195.606857 157.365448,194.756149   C161.038574,193.695145 164.416260,191.508636 168.116623,190.690155   C169.819153,190.313599 172.660294,191.503479 173.786087,192.929581   C175.528931,195.137375 175.947525,198.341125 177.469910,200.784729   C179.425705,203.923981 182.018051,206.659500 184.135300,209.708435   C185.129913,211.140747 185.654892,212.899185 186.392700,214.509827   C186.019730,215.074448 185.646744,215.639084 185.273758,216.203705   C177.232315,215.006424 169.201004,213.730545 161.138992,212.693115   C159.869843,212.529800 157.429169,213.222534 157.282639,213.899017   C156.191986,218.934753 151.422806,220.509766 148.504120,223.767380   C147.491394,224.897705 146.081497,225.672195 144.853012,226.609207   C144.976044,227.263214 145.099091,227.917221 145.222122,228.571228   C153.515182,228.688370 161.810410,228.961212 170.100266,228.846710   C173.455338,228.800385 174.853012,229.156525 173.090973,232.819427   C170.105713,239.025146 166.074432,243.471878 158.498581,243.102142   C157.754669,243.065796 157.003555,243.788193 156.216858,243.912872   C152.473480,244.506119 148.716614,245.014374 144.608154,245.741241  z" />
    <path fill="transparent" stroke="none"
        d=" M180.292450,288.792023   C185.645935,297.944763 190.732010,306.838745 196.233826,316.459686   C194.977386,316.987274 193.736847,318.022736 192.657776,317.875458   C186.868973,317.085297 181.117722,316.015808 175.358963,315.011536   C172.136124,314.449463 170.111847,313.744415 170.193665,309.211090   C170.263885,305.320221 167.230255,301.459229 166.128311,297.432068   C165.351578,294.593384 165.774704,291.445892 165.192307,288.530121   C164.244202,283.783325 162.605133,279.160980 161.863037,274.391907   C161.452286,271.752197 162.271530,268.921112 162.536346,266.176270   C164.800690,268.039856 167.565247,269.541382 169.228867,271.839752   C173.109070,277.200531 176.459824,282.944519 180.292450,288.792023  z" />
</svg>
