<svg xmlns="http://www.w3.org/2000/svg" viewBox="0 0 224 224">
    <style type="text/css">
        .st0 {
            fill: #FFFFFF;
        }
    </style>
    <path class="st0" d="M225.35,22.48c-0.97,7.95-2.07,16.95-3.17,25.95c-1.23,9.97-2.46,19.94-3.69,29.91
        c-1.25,10.13-2.5,20.27-3.74,30.4c-1.22,9.97-2.41,19.95-3.64,29.92c-1.24,10.05-2.5,20.1-3.74,30.15c-0.4,3.24-0.8,6.49-1.17,9.73
        c-0.56,4.96-3.19,7.45-8.2,6.99c-7.64-0.69-15.26-1.74-22.88-2.66c-11.43-1.39-22.86-2.8-34.29-4.21
        c-10.05-1.24-20.1-2.5-30.15-3.74c-5.84-0.72-11.66-1.55-17.51-2.11c-6.41-0.62-8.8-3.58-8-9.92c1.6-12.72,3.05-25.47,4.61-38.2
        c1.88-15.32,3.84-30.64,5.73-45.96c1.56-12.65,3.02-25.3,4.58-37.95c1.41-11.51,2.83-23.02,4.36-34.52
        c0.6-4.48,3.84-6.95,8.27-6.42c11.19,1.34,22.37,2.81,33.55,4.18c9.97,1.23,19.95,2.39,29.92,3.61c10.05,1.24,20.1,2.52,30.15,3.78
        c4.05,0.51,8.12,0.91,12.16,1.52C223.86,13.75,225.69,16.06,225.35,22.48z"></path>
    <path class="st0" d="M98.24,9.91c-0.25,1.95-0.2,3.65-0.75,5.13c-0.31,0.81-1.55,1.47-2.51,1.82C79.6,22.49,64.2,28.06,48.8,33.65
        c-11.96,4.34-23.91,8.7-35.86,13.04c-6.03,2.19-7.55,5.41-5.37,11.39c16.5,45.34,32.99,90.68,49.49,136.02
        c1.39,3.83,2.78,7.66,4.18,11.49c1.86,5.08,5.39,6.7,10.47,4.85c23.27-8.47,46.54-16.95,69.83-25.35c1.21-0.44,2.7-0.27,4.03-0.15
        c2.83,0.25,5.66,0.64,8.56,1.47c-4.83,1.76-9.65,3.53-14.48,5.29c-21.9,7.97-43.8,15.96-65.72,23.89
        c-8.57,3.1-14.97,0.11-18.11-8.48c-8.3-22.65-16.5-45.34-24.76-68.01c-9.54-26.2-19.09-52.39-28.62-78.59
        c-3.46-9.52-0.72-15.64,8.79-19.12c28.46-10.45,56.95-20.81,85.43-31.2C97.04,10.05,97.46,10.04,98.24,9.91z">
    </path>
</svg>
